<svg width="100" height="150" viewBox="0 0 1625 1561" fill="none" xmlns="http://www.w3.org/2000/svg">
  <g clip-path="url(#clip0_5656_4627)">
    <path fill-rule="evenodd" clip-rule="evenodd" d="M762.87 1003.35L809.64 956.62C889.18 877.19 818.89 662.43 1053.13 662.43C1120.71 662.43 1175.48 607.66 1175.48 540.07C1175.48 472.48 1120.71 417.76 1053.13 417.76C985.55 417.76 930.8 472.53 930.8 540.07C930.8 772.76 695.58 678.09 613.3 760.28L566.53 807.01C436.62 936.77 633.02 1133.16 762.87 1003.35Z" fill="url(#paint0_linear_5656_4627)"/>
    <path fill-rule="evenodd" clip-rule="evenodd" d="M40.57 575.16L40.53 575.2C-13.49 629.17 -13.49 717.49 40.53 771.5L199.56 930.57C209.78 940.62 326.5 1037.22 218.8 1144.87L40.49 1323.21C-13.49 1377.23 -13.49 1465.53 40.49 1519.51L40.53 1519.55C94.5 1573.53 182.85 1573.53 236.83 1519.55L415.92 1340.46C428.11 1328.15 497.97 1228.95 611.86 1342.84L788.58 1519.54C842.6 1573.56 930.93 1573.56 984.9 1519.54L984.92 1519.5C1038.91 1465.53 1038.91 1377.22 984.92 1323.2L939.55 1277.81C807.44 1145.7 804.61 1113.46 663.02 1113.46C541.53 1113.46 443.23 1014.76 443.23 893.63C443.23 782.29 445.62 783.92 349.64 687.91L236.86 575.14C182.91 521.12 94.54 521.17 40.56 575.14L40.57 575.16Z" fill="url(#paint1_linear_5656_4627)"/>
    <path fill-rule="evenodd" clip-rule="evenodd" d="M1345.49 191.02C1391.17 191.02 1428.17 228 1428.17 273.68C1428.17 319.36 1391.17 356.38 1345.49 356.38C1299.81 356.38 1262.81 319.37 1262.81 273.68C1262.81 227.99 1299.81 191.02 1345.49 191.02Z" fill="#F58220"/>
    <path fill-rule="evenodd" clip-rule="evenodd" d="M1578.76 92.45C1604.22 92.45 1624.99 71.68 1624.99 46.22C1624.99 20.76 1604.22 0 1578.76 0C1553.3 0 1532.53 20.77 1532.53 46.23C1532.53 71.69 1553.3 92.46 1578.76 92.46V92.45Z" fill="#00A651"/>
  </g>
  <defs>
    <linearGradient id="paint0_linear_5656_4627" x1="238.94" y1="2093.16" x2="919.96" y2="563.56" gradientUnits="userSpaceOnUse">
      <stop stop-color="#2E3192"/>
      <stop offset="1" stop-color="#00AEEF"/>
    </linearGradient>
    <linearGradient id="paint1_linear_5656_4627" x1="336.62" y1="1442.87" x2="633.5" y2="776.07" gradientUnits="userSpaceOnUse">
      <stop stop-color="#2E3192"/>
      <stop offset="1" stop-color="#00AEEF"/>
    </linearGradient>
    <clipPath id="clip0_5656_4627">
      <rect width="1624.99" height="1560.07" fill="white"/>
    </clipPath>
  </defs>
</svg>
