<svg id="Capa_1" enable-background="new 0 0 511.339 511.339" height="512" viewBox="0 0 511.339 511.339" width="512" xmlns="http://www.w3.org/2000/svg"><g><path d="m289.076 301.568-18.479 9.428c-4.408 2.231-9.354 3.462-14.303 3.558-.106.002-.213.006-.317.013-.104-.004-.209-.006-.313-.006-5.163 0-10.327-1.232-14.913-3.554l-17.808-9.086c-3.688-1.882-8.207-.417-10.089 3.272-1.883 3.689-.418 8.207 3.272 10.089l17.828 9.097c6.696 3.39 14.203 5.182 21.709 5.182.155 0 .311-.005.464-.014.152.007.308.009.458.005 7.19-.14 14.379-1.928 20.808-5.183l18.5-9.439c3.69-1.882 5.155-6.399 3.272-10.089-1.882-3.69-6.402-5.156-10.089-3.273z"/><path d="m332.528 154.94c2.081 1.067 4.048 2.347 5.846 3.802 1.389 1.125 3.057 1.671 4.714 1.671 2.186 0 4.353-.951 5.834-2.781 2.606-3.22 2.109-7.942-1.11-10.548-2.6-2.105-5.438-3.952-8.452-5.498l-27.136-13.845c-3.689-1.882-8.207-.418-10.089 3.272-1.883 3.69-.418 8.207 3.272 10.089z"/><path d="m236.562 124.554c1.146 0 2.311-.264 3.402-.821l.668-.34c4.642-2.364 9.839-3.614 15.03-3.614 5.19 0 10.38 1.245 15.058 3.627 3.697 1.849 8.187.359 10.049-3.33 1.861-3.688.388-8.188-3.294-10.062-6.724-3.425-14.267-5.235-21.812-5.235s-15.098 1.815-21.843 5.25l-.672.343c-3.689 1.882-5.155 6.399-3.272 10.089 1.325 2.598 3.957 4.093 6.686 4.093z"/><path d="m160.747 227.111v-39c0-4.142-3.357-7.5-7.5-7.5s-7.5 3.358-7.5 7.5v39c0 4.142 3.357 7.5 7.5 7.5s7.5-3.358 7.5-7.5z"/><path d="m198.408 128.096-26.531 13.536c-3.248 1.666-6.302 3.694-9.078 6.03-3.17 2.667-3.577 7.398-.911 10.567 1.483 1.764 3.605 2.672 5.743 2.672 1.704 0 3.418-.578 4.824-1.761 1.914-1.61 4.022-3.01 6.252-4.154l26.518-13.529c3.69-1.882 5.155-6.399 3.272-10.089-1.882-3.69-6.402-5.156-10.089-3.272z"/><path d="m357.983 258.005c-3.847-1.529-8.21.351-9.738 4.201-2.938 7.394-8.489 13.484-15.618 17.143l-8.812 4.496c-3.689 1.882-5.155 6.399-3.272 10.089 1.325 2.598 3.957 4.093 6.687 4.093 1.146 0 2.312-.264 3.402-.821l8.827-4.503c10.377-5.325 18.447-14.188 22.726-24.958 1.528-3.85-.352-8.211-4.202-9.74z"/><path d="m171.966 292.753 9.419 4.806c1.092.557 2.255.821 3.402.821 2.729 0 5.361-1.495 6.687-4.093 1.883-3.69.418-8.207-3.272-10.089l-9.403-4.798c-6.984-3.584-12.482-9.485-15.479-16.616-1.605-3.819-6.002-5.614-9.82-4.008-3.818 1.605-5.613 6.001-4.008 9.82 4.361 10.379 12.338 18.956 22.474 24.157z"/><path d="m358.079 179.838c-4.143 0-7.5 3.358-7.5 7.5v39c0 4.142 3.357 7.5 7.5 7.5s7.5-3.358 7.5-7.5v-39c0-4.142-3.358-7.5-7.5-7.5z"/><path d="m441.41 87.3-84.515-84.514c-1.799-1.797-4.188-2.786-6.729-2.786h-271.296c-6.467 0-11.729 5.261-11.729 11.729v83.809c0 4.142 3.357 7.5 7.5 7.5s7.5-3.358 7.5-7.5v-80.538h259.468v77.094c0 5.353 4.354 9.707 9.707 9.707h77.882v364.407h-47.117c-4.143 0-7.5 3.358-7.5 7.5s3.357 7.5 7.5 7.5h50.39c6.467 0 11.728-5.261 11.728-11.729v-375.446c-.001-2.544-.991-4.935-2.789-6.733zm-84.801-63.587 63.088 63.088h-63.088z"/><path d="m128.734 466.208h-46.593v-338.708c0-4.142-3.357-7.5-7.5-7.5s-7.5 3.358-7.5 7.5v341.98c0 6.467 5.262 11.729 11.729 11.729h49.864c4.143 0 7.5-3.358 7.5-7.5s-3.358-7.501-7.5-7.501z"/><path d="m341.69 403.078h-36.402c-4.143 0-7.5 3.358-7.5 7.5s3.357 7.5 7.5 7.5h36.402c1.594 0 2.891 1.296 2.891 2.89v72.481c0 1.593-1.297 2.89-2.891 2.89h-172.566c-1.594 0-2.89-1.296-2.89-2.89v-72.481c0-1.594 1.296-2.89 2.89-2.89h104.201c4.143 0 7.5-3.358 7.5-7.5s-3.357-7.5-7.5-7.5h-104.201c-9.864 0-17.89 8.025-17.89 17.89v72.481c0 9.864 8.025 17.89 17.89 17.89h172.566c9.865 0 17.891-8.025 17.891-17.89v-72.481c0-9.865-8.026-17.89-17.891-17.89z"/><path d="m185.747 184.398v65.542c0 3.038 1.68 5.787 4.398 7.182l61.859 31.561c1.145.583 2.4.875 3.656.875 1.259 0 2.518-.292 3.666-.877l61.869-31.565c2.703-1.387 4.383-4.136 4.383-7.174v-65.542c0-3.038-1.68-5.787-4.398-7.182l-21.617-11.029c-3.689-1.883-8.206-.418-10.089 3.272s-.418 8.207 3.272 10.089l8.83 4.505-45.914 23.425-45.914-23.425 45.914-23.425 7.896 4.029c3.688 1.882 8.208.418 10.09-3.272 1.883-3.689.418-8.207-3.271-10.089l-11.056-5.641c-2.292-1.167-5.028-1.166-7.322.003l-61.869 31.565c-2.704 1.386-4.383 4.135-4.383 7.173zm15 11.902 47.16 24.061v49.393l-47.16-24.062zm62.16 73.715v-49.392l47.672-24.323v49.392z"/></g></svg>