<svg width="25" height="24" viewBox="0 0 25 24" fill="none" xmlns="http://www.w3.org/2000/svg">
<path d="M7.28033 2.71967C7.57322 3.01256 7.57322 3.48744 7.28033 3.78033L5.06066 6H13.75C18.0302 6 21.5 9.46979 21.5 13.75C21.5 18.0302 18.0302 21.5 13.75 21.5C9.46979 21.5 6 18.0302 6 13.75C6 13.3358 6.33579 13 6.75 13C7.16421 13 7.5 13.3358 7.5 13.75C7.5 17.2018 10.2982 20 13.75 20C17.2018 20 20 17.2018 20 13.75C20 10.2982 17.2018 7.5 13.75 7.5H5.06066L7.28033 9.71967C7.57322 10.0126 7.57322 10.4874 7.28033 10.7803C6.98744 11.0732 6.51256 11.0732 6.21967 10.7803L2.71967 7.28033C2.42678 6.98744 2.42678 6.51256 2.71967 6.21967L6.21967 2.71967C6.51256 2.42678 6.98744 2.42678 7.28033 2.71967Z" fill="#242424"/>
</svg>
