<svg fill="#000000" xmlns="http://www.w3.org/2000/svg"  viewBox="0 0 16 16" width="16px" height="16px"><path d="M 5.046875 3 C 4.535787 3 4.0584729 3.2620453 3.7832031 3.6914062 L 2.1308594 6.1542969 C 0.95511682 6.3564786 -5.9211895e-16 7.2688547 0 8.5 L 0 9.5 C 0 10.322727 0.67294728 11.001827 1.4960938 11.007812 L 2.0019531 11.011719 C 2.0085256 12.10489 2.9053788 13 4 13 C 5.0986472 13 6 12.098647 6 11 L 10 11 C 10 12.098647 10.901353 13 12 13 C 13.098647 13 14 12.098647 14 11 L 15 11 C 15.546531 11 16 10.546531 16 10 L 16 8.6308594 C 16 7.7399639 15.40501 6.9536078 14.548828 6.7089844 L 12.285156 6.0625 L 10.333984 3.7207031 C 9.9543476 3.2651381 9.3921427 3 8.7988281 3 L 5.046875 3 z M 5.046875 4 L 6 4 L 6 6 L 3.4375 6 L 4.6230469 4.234375 L 4.625 4.2304688 C 4.7177303 4.0858296 4.875963 4 5.046875 4 z M 7 4 L 8.7988281 4 C 9.0955135 4 9.3760438 4.1309401 9.5664062 4.359375 L 10.933594 6 L 7 6 L 7 4 z M 2.5 7 L 2.625 7 L 2.765625 7 L 11.933594 7 L 14.275391 7.6699219 C 14.707209 7.7932984 15 8.1817549 15 8.6308594 L 15 10 L 13.71875 10 C 13.370542 9.406449 12.73315 9 12 9 C 11.26685 9 10.629458 9.406449 10.28125 10 L 5.71875 10 C 5.3705416 9.406449 4.7331501 9 4 9 C 3.2612659 9 2.6197259 9.4126629 2.2734375 10.013672 L 1.5039062 10.007812 C 1.2270551 10.005801 1 9.7772727 1 9.5 L 1 8.5 C 1 7.6649849 1.6649849 7 2.5 7 z M 4 10 C 4.5582071 10 5 10.441793 5 11 C 5 11.558207 4.5582071 12 4 12 C 3.4417929 12 3 11.558207 3 11 C 3 10.441793 3.4417929 10 4 10 z M 12 10 C 12.558207 10 13 10.441793 13 11 C 13 11.558207 12.558207 12 12 12 C 11.441793 12 11 11.558207 11 11 C 11 10.441793 11.441793 10 12 10 z"/></svg>