<svg width="28" height="28" viewBox="0 0 28 28" fill="none" xmlns="http://www.w3.org/2000/svg">
<path d="M4.5 6.25C4.5 5.83579 4.83579 5.5 5.25 5.5H5.80826C6.75873 5.5 7.32782 6.13899 7.65325 6.73299C7.87016 7.12894 8.02708 7.58818 8.14982 8.00395C8.18306 8.00134 8.21674 8 8.2508 8H20.7481C21.5783 8 22.1778 8.79442 21.9502 9.5928L20.1224 16.0019C19.7856 17.1832 18.7062 17.9978 17.4779 17.9978H11.5298C10.2913 17.9978 9.2056 17.1699 8.87783 15.9756L8.11734 13.2045L6.85874 8.95578L6.8567 8.94834C6.701 8.38051 6.55487 7.85005 6.33773 7.4537C6.12686 7.0688 5.95877 7 5.80826 7H5.25C4.83579 7 4.5 6.66421 4.5 6.25ZM9.57283 12.8403L10.3243 15.5786C10.4733 16.1215 10.9668 16.4978 11.5298 16.4978H17.4779C18.0362 16.4978 18.5268 16.1275 18.68 15.5906L20.4168 9.5H8.58549L9.55906 12.7868C9.56434 12.8046 9.56892 12.8224 9.57283 12.8403ZM13 21C13 22.1046 12.1046 23 11 23C9.89543 23 9 22.1046 9 21C9 19.8954 9.89543 19 11 19C12.1046 19 13 19.8954 13 21ZM11.5 21C11.5 20.7239 11.2761 20.5 11 20.5C10.7239 20.5 10.5 20.7239 10.5 21C10.5 21.2761 10.7239 21.5 11 21.5C11.2761 21.5 11.5 21.2761 11.5 21ZM20 21C20 22.1046 19.1046 23 18 23C16.8954 23 16 22.1046 16 21C16 19.8954 16.8954 19 18 19C19.1046 19 20 19.8954 20 21ZM18.5 21C18.5 20.7239 18.2761 20.5 18 20.5C17.7239 20.5 17.5 20.7239 17.5 21C17.5 21.2761 17.7239 21.5 18 21.5C18.2761 21.5 18.5 21.2761 18.5 21Z" fill="#242424"/>
</svg>