<svg id="icons" xmlns="http://www.w3.org/2000/svg" viewBox="0 0 64 64"><defs><style>.cls-1{fill:none;stroke:#000;stroke-linecap:round;stroke-linejoin:round;stroke-width:2px;}</style></defs><title>armchair_5</title><g id="armchair_5"><path class="cls-1" d="M53.3,49.36c.94,0,1.7-1.05268,1.7-2.35037V27.44439c0-1.47919-.86-2.68614-1.94-2.68614H49.97a2.1621,2.1621,0,0,0-1.63,2.35037l-.00148,12.1932h-32.677L15.66,27.10862a2.1621,2.1621,0,0,0-1.63-2.35037H10.94c-1.08,0-1.94,1.20695-1.94,2.68614V47.00962C9,48.30731,9.76,49.36,10.7,49.36Z"/><polyline class="cls-1" points="19.956 49.361 18.252 57 15.5 57 15.5 49.361"/><polyline class="cls-1" points="48.5 49.361 48.5 57 45.748 57 44.044 49.361"/><path class="cls-1" d="M48.33852,37.15447h0c0-2.29053-1.4131-4.14737-3.15624-4.14737H18.81772c-1.74314,0-3.15624,1.85684-3.15624,4.14737h0"/><path class="cls-1" d="M13.95,24.75825V17a10,10,0,0,1,10-10H40.04222a10,10,0,0,1,10,10v7.75824"/></g></svg>