<svg width="17" height="16" viewBox="0 0 17 16" fill="none" xmlns="http://www.w3.org/2000/svg">
<path d="M16.0065 2.03302C16.0049 0.934713 15.1179 0.0432064 14.0196 0.0360071L9.12922 0.00394928C8.59514 0.000448124 8.08184 0.210713 7.7037 0.587893L1.02216 7.25243C0.239413 8.03318 0.238604 9.3009 1.02036 10.0827L5.96875 15.0311C6.7498 15.8121 8.01613 15.8121 8.79718 15.0311L15.428 8.40024C15.8038 8.02444 16.0146 7.51453 16.0138 6.98308L16.0065 2.03302ZM12 4.99985C11.4477 4.99985 11 4.55213 11 3.99985C11 3.44756 11.4477 2.99985 12 2.99985C12.5523 2.99985 13 3.44756 13 3.99985C13 4.55213 12.5523 4.99985 12 4.99985Z" fill="#2E368E"/>
</svg>
