<svg width="20" height="21" viewBox="0 0 20 21" fill="none" xmlns="http://www.w3.org/2000/svg">
<path d="M8 2.5C6.89543 2.5 6 3.39543 6 4.5V14.5C6 15.6046 6.89543 16.5 8 16.5H14C15.1046 16.5 16 15.6046 16 14.5V4.5C16 3.39543 15.1046 2.5 14 2.5H8ZM7 4.5C7 3.94772 7.44772 3.5 8 3.5H14C14.5523 3.5 15 3.94772 15 4.5V14.5C15 15.0523 14.5523 15.5 14 15.5H8C7.44772 15.5 7 15.0523 7 14.5V4.5ZM4 6.50001C4 5.75973 4.4022 5.11339 5 4.76758V15C5 16.3807 6.11929 17.5 7.5 17.5H13.7324C13.3866 18.0978 12.7403 18.5 12 18.5H7.5C5.567 18.5 4 16.933 4 15V6.50001Z" fill="#2E368E"/>
</svg>
