<svg width="15" height="15" viewBox="0 0 15 15" fill="none" xmlns="http://www.w3.org/2000/svg">
<rect width="15" height="15" fill="white"/>
<path d="M11.7 10C11.8657 10 12 10.1343 12 10.3C12 10.4519 11.8871 10.5774 11.7407 10.5973L11.7 10.6H10.6V11.7C10.6 11.8657 10.4657 12 10.3 12C10.1481 12 10.0226 11.8871 10.0027 11.7407L10 11.7V10.6H6.7C6.00679 10.6 5.4403 10.0574 5.40206 9.37377L5.4 9.3L5.3996 6H4.3C4.13431 6 4 5.86569 4 5.7C4 5.54812 4.11286 5.4226 4.25929 5.40274L4.3 5.4H5.3996L5.4 4.3C5.4 4.13431 5.53431 4 5.7 4C5.85188 4 5.9774 4.11286 5.99726 4.25929L6 4.3L5.9996 5.4H6V6H5.9996L6 9.3C6 9.66727 6.28284 9.96848 6.64259 9.99768L6.7 10H11.7ZM6.4 5.4H9.3C9.99321 5.4 10.5597 5.94258 10.5979 6.62623L10.6 6.7V9.6H10V6.7C10 6.33273 9.71716 6.03152 9.35741 6.00232L9.3 6H6.4V5.4Z" fill="#242424"/>
</svg>
