<svg width="25" height="24" viewBox="0 0 25 24" fill="none" xmlns="http://www.w3.org/2000/svg">
<path d="M21.75 17C22.1642 17 22.5 17.3358 22.5 17.75C22.5 18.1297 22.2178 18.4435 21.8518 18.4932L21.75 18.5H19V21.25C19 21.6642 18.6642 22 18.25 22C17.8703 22 17.5565 21.7178 17.5068 21.3518L17.5 21.25V18.5H9.25C7.51697 18.5 6.10075 17.1435 6.00514 15.4344L6 15.25L5.999 7H3.25C2.83579 7 2.5 6.66421 2.5 6.25C2.5 5.8703 2.78215 5.55651 3.14823 5.50685L3.25 5.5H5.999L6 2.75C6 2.33579 6.33579 2 6.75 2C7.1297 2 7.44349 2.28215 7.49315 2.64823L7.5 2.75L7.499 5.5H7.5V7H7.499L7.5 15.25C7.5 16.1682 8.20711 16.9212 9.10647 16.9942L9.25 17H21.75ZM8.5 5.5H15.75C17.483 5.5 18.8992 6.85646 18.9949 8.56558L19 8.75V16H17.5V8.75C17.5 7.83183 16.7929 7.07881 15.8935 7.0058L15.75 7H8.5V5.5Z" fill="#242424"/>
</svg>
