<svg width="28" height="28" viewBox="0 0 28 28" fill="none" xmlns="http://www.w3.org/2000/svg">
<path d="M12.9524 7.5343C13.6171 7.2275 14.3829 7.2275 15.0476 7.5343L19.7095 9.68594C19.8866 9.76767 20 9.94489 20 10.1399V12.0001H21V10.1399C21 9.55484 20.6598 9.02316 20.1286 8.77798L15.4667 6.62634C14.5361 6.19682 13.4639 6.19682 12.5333 6.62634L7.87141 8.77798C7.34019 9.02316 7 9.55484 7 10.1399V12.0001H8L8 10.1399C8 9.94489 8.1134 9.76767 8.29047 9.68594L12.9524 7.5343ZM7.39872 15.0001C7.58077 15.15 7.7811 15.2962 8 15.4375C8.05121 15.4706 8.10344 15.5034 8.15669 15.536C9.6041 16.4205 11.6673 17.0002 13.9992 17.0002C16.3311 17.0002 18.3943 16.4205 19.8417 15.536C19.8955 15.5031 19.9483 15.4699 20 15.4365C20.2183 15.2954 20.4181 15.1496 20.5997 15.0001C20.7447 14.8808 20.878 14.759 21 14.6354C21.2046 14.4281 21.377 14.2155 21.5179 14.0001H20.0002C20.0001 14.0001 20.0002 14.0001 20.0002 14.0001C19.7241 14 19.5002 13.7762 19.5002 13.5001C19.5002 13.224 19.724 13.0001 20.0002 13.0001H22.5002C22.6328 13.0001 22.7599 13.0528 22.8537 13.1466C22.9475 13.2403 23.0002 13.3675 23.0002 13.5001V16.0001C23.0002 16.2763 22.7763 16.5001 22.5002 16.5001C22.224 16.5001 22.0002 16.2763 22.0002 16.0001V15.0212C21.7185 15.3544 21.3827 15.6677 21 15.9568C20.8002 16.1077 20.5876 16.2521 20.3632 16.3892C20.2453 16.4613 20.1242 16.5313 20 16.5992C18.4076 17.4704 16.3046 18.0002 13.9992 18.0002C11.6945 18.0002 9.59217 17.4708 8 16.6001C7.87523 16.5319 7.75359 16.4616 7.63524 16.3892C7.41142 16.2525 7.19935 16.1085 7 15.958C6.61739 15.6692 6.2817 15.3561 6 15.0233V16.0001C6 16.2763 5.77614 16.5001 5.5 16.5001C5.22386 16.5001 5 16.2763 5 16.0001V13.5001C5 13.3675 5.05268 13.2403 5.14645 13.1466C5.24021 13.0528 5.36739 13.0001 5.5 13.0001H8C8.27614 13.0001 8.5 13.224 8.5 13.5001C8.5 13.7763 8.27614 14.0001 8 14.0001H6.48054C6.62181 14.2161 6.79473 14.4292 7 14.637C7.12152 14.7601 7.25437 14.8813 7.39872 15.0001ZM8 17.7242V17.8603C8 18.0553 8.1134 18.2325 8.29047 18.3142L12.9524 20.4659C13.6171 20.7727 14.3829 20.7727 15.0476 20.4659L19.7095 18.3142C19.8866 18.2325 20 18.0553 20 17.8603V17.7234C20.3511 17.5544 20.6852 17.3702 21 17.1715V17.8603C21 18.4453 20.6598 18.977 20.1286 19.2222L15.4667 21.3738C14.5361 21.8034 13.4639 21.8034 12.5333 21.3738L7.87141 19.2222C7.34019 18.977 7 18.4453 7 17.8603V17.1725C7.31477 17.3711 7.64893 17.5553 8 17.7242ZM10.0403 10.8032C10.1491 10.5494 10.443 10.4318 10.6968 10.5406L13.9999 11.9561L17.3029 10.5406C17.5567 10.4318 17.8507 10.5494 17.9595 10.8032C18.0682 11.057 17.9507 11.3509 17.6968 11.4597L14.4999 12.8298V15.0001C14.4999 15.2763 14.276 15.5001 13.9999 15.5001C13.7237 15.5001 13.4999 15.2763 13.4999 15.0001V12.8298L10.3029 11.4597C10.0491 11.3509 9.93153 11.057 10.0403 10.8032Z" fill="#242424"/>
</svg>
