<svg width="13" height="17" viewBox="0 0 13 17" fill="none" xmlns="http://www.w3.org/2000/svg">
<path d="M11.717 15.4997C11.9932 15.4997 12.217 15.7236 12.217 15.9997C12.217 16.2452 12.0402 16.4494 11.8069 16.4917L11.717 16.4997H0.717041C0.440899 16.4997 0.217041 16.2759 0.217041 15.9997C0.217041 15.7543 0.393916 15.5501 0.627165 15.5078L0.717041 15.4997H11.717ZM6.21719 0.501953C6.46265 0.501953 6.66674 0.678959 6.70901 0.91222L6.71704 1.0021L6.71304 12.796L10.3584 9.14762C10.5319 8.97389 10.8013 8.95436 10.9963 9.08918L11.0656 9.14697C11.2393 9.32038 11.2588 9.58978 11.124 9.78477L11.0662 9.85408L6.57449 14.3541C6.50199 14.4267 6.41272 14.4724 6.31911 14.4911L6.21312 14.5008C6.05215 14.5008 5.90897 14.4247 5.81755 14.3065L1.3609 9.85465C1.1655 9.65953 1.16528 9.34295 1.3604 9.14755C1.53384 8.97386 1.80325 8.95438 1.99822 9.08924L2.0675 9.14704L5.71304 12.788L5.71704 1.00181C5.71712 0.725666 5.94104 0.501953 6.21719 0.501953Z" fill="#242424"/>
</svg>
