<svg width="15" height="20" viewBox="0 0 15 20" fill="none" xmlns="http://www.w3.org/2000/svg">
<path d="M13.7498 18.5009C14.164 18.5008 14.5 18.8365 14.5 19.2507C14.5 19.6649 14.1644 20.0008 13.7502 20.0009L0.750217 20.0047C0.336003 20.0048 0 19.6691 0 19.2549C0 18.8407 0.33557 18.5048 0.749783 18.5047L13.7498 18.5009ZM7.14823 0.012706L7.25 0.00585938C7.6297 0.00585938 7.94349 0.288013 7.99315 0.654089L8 0.755859L7.999 14.4409L11.7208 10.7205C11.9871 10.4543 12.4038 10.4301 12.6974 10.648L12.7815 10.7206C13.0477 10.9869 13.0719 11.4036 12.854 11.6972L12.7814 11.7813L7.78372 16.7779C7.51757 17.044 7.10119 17.0683 6.8076 16.8507L6.72348 16.7782L1.72003 11.7816C1.42694 11.4889 1.42661 11.014 1.71931 10.7209C1.98539 10.4545 2.40204 10.43 2.6958 10.6477L2.77997 10.7202L6.499 14.4339L6.5 0.755859C6.5 0.376164 6.78215 0.0623685 7.14823 0.012706L7.25 0.00585938L7.14823 0.012706Z" fill="white"/>
</svg>
