<svg width="346" height="256" viewBox="0 0 346 256" fill="none" xmlns="http://www.w3.org/2000/svg">
<path d="M178.223 45.1705C177.708 44.6525 177.414 43.9558 177.402 43.2259C177.389 42.4961 177.659 41.7896 178.155 41.2541L196.458 21.4992C196.717 21.2194 197.03 20.9949 197.378 20.8392C197.727 20.6835 198.103 20.5998 198.484 20.5932C198.866 20.5866 199.244 20.6572 199.598 20.8007C199.951 20.9442 200.272 21.1577 200.541 21.4284L202.121 23.0195C202.39 23.2902 202.601 23.6124 202.742 23.9668C202.883 24.3213 202.951 24.7006 202.942 25.0819C202.932 25.4633 202.846 25.8388 202.688 26.1859C202.53 26.5331 202.303 26.8447 202.021 27.1019L182.139 45.2658C181.6 45.7582 180.892 46.0233 180.162 46.0056C179.432 45.9878 178.737 45.6886 178.223 45.1705Z" fill="#2E368E"/>
<path d="M166.638 38.4374C166.2 38.2435 165.855 37.8879 165.673 37.4451C165.492 37.0022 165.488 36.5063 165.664 36.061L172.141 19.6336C172.233 19.4009 172.371 19.1892 172.546 19.0111C172.722 18.8331 172.932 18.6924 173.163 18.5976C173.395 18.5027 173.643 18.4556 173.893 18.4592C174.143 18.4627 174.39 18.5168 174.619 18.6181L175.963 19.2139C176.191 19.3153 176.397 19.4618 176.568 19.6448C176.738 19.8277 176.87 20.0432 176.955 20.2784C177.041 20.5136 177.077 20.7636 177.063 21.0133C177.049 21.263 176.985 21.5074 176.874 21.7316L169.053 37.5632C168.841 37.9925 168.472 38.3232 168.021 38.4861C167.571 38.649 167.075 38.6316 166.638 38.4374Z" fill="#2E368E"/>
<path d="M154.851 41.1221C153.358 41.3908 151.861 40.11 151.456 38.2186L144.272 4.63425C143.843 2.62721 144.804 0.718345 146.388 0.432929L148.595 0.0357147C150.178 -0.249381 151.745 1.20493 152.043 3.23504L157.02 37.2164C157.301 39.1309 156.344 40.8533 154.851 41.1221Z" fill="#2E368E"/>
<path d="M270.965 72.7285L239.282 68.6442C238.748 68.5873 238.21 68.6943 237.739 68.9511C237.268 69.2079 236.887 69.6022 236.645 70.0814L228.221 86.7161L192.955 157.247C192.58 157.992 191.952 158.579 191.183 158.903C190.415 159.227 189.556 159.266 188.761 159.014L93.0384 128.46C92.7744 128.376 92.4941 128.355 92.2207 128.401C91.9472 128.446 91.6884 128.555 91.4655 128.72C91.2427 128.885 91.0621 129.1 90.9387 129.348C90.8152 129.596 90.7525 129.87 90.7555 130.147L90.7994 134.122C90.8048 134.675 90.9844 135.212 91.3127 135.656C91.6409 136.101 92.1011 136.431 92.6277 136.599L193.905 168.925C195.034 169.285 196.048 169.937 196.843 170.816C197.639 171.694 198.188 172.767 198.436 173.926L198.469 174.084C199.35 178.923 194.582 182.896 189.882 181.47L78.8286 145.977C78.2589 145.796 77.7682 145.425 77.4377 144.927C77.1071 144.429 76.9565 143.833 77.0109 143.238L85.7021 48.3284C85.7458 47.8391 85.8919 47.3644 86.131 46.9352C86.37 46.5059 86.6967 46.1318 87.0897 45.837C87.4828 45.5422 87.9334 45.3334 88.4124 45.2241C88.8914 45.1148 89.388 45.1074 89.87 45.2024L222.91 71.2283L231.479 54.1988C231.727 53.7175 232.116 53.3238 232.594 53.0706C233.072 52.8175 233.617 52.7172 234.154 52.7833L272.952 57.7516C273.296 57.7949 273.628 57.906 273.929 58.0784C274.23 58.2509 274.494 58.4814 274.705 58.7565C274.916 59.0316 275.071 59.3458 275.16 59.6811C275.249 60.0163 275.271 60.3659 275.224 60.7096L273.901 70.4682C273.809 71.1563 273.449 71.7801 272.899 72.2036C272.349 72.627 271.654 72.8157 270.965 72.7285Z" fill="#2E368E"/>
<path d="M91.0669 112.211L101.908 115.671L112.306 62.9397L95.6638 60.3843L91.0669 112.211Z" fill="#EAEBF4"/>
<path d="M176.125 139.359L186.965 142.819L215.001 83.7723L203.06 80.8799L176.125 139.359Z" fill="#EAEBF4"/>
<path d="M134.43 126.052L144.437 129.246L165.871 73.6051L149.495 70.2158L134.43 126.052Z" fill="#EAEBF4"/>
<path d="M121.745 65.0332L138.122 68.4225L123.589 122.591L112.748 119.13L121.745 65.0332Z" fill="#EAEBF4"/>
<path d="M192.787 78.5198L176.41 75.1304L156.111 132.971L166.118 136.165L192.787 78.5198Z" fill="#EAEBF4"/>
<path d="M93.1589 180.243C100.169 180.243 105.851 174.56 105.851 167.55C105.851 160.54 100.169 154.857 93.1589 154.857C86.149 154.857 80.4663 160.54 80.4663 167.55C80.4663 174.56 86.149 180.243 93.1589 180.243Z" fill="#BEC1DC"/>
<path d="M172.379 205.529C179.389 205.529 185.072 199.846 185.072 192.836C185.072 185.826 179.389 180.144 172.379 180.144C165.369 180.144 159.687 185.826 159.687 192.836C159.687 199.846 165.369 205.529 172.379 205.529Z" fill="#BEC1DC"/>
<path d="M276.664 57.2263L243.227 53.0401C243.041 53.0169 242.872 53.1483 242.849 53.3337L240.822 69.5225C240.799 69.7079 240.931 69.877 241.116 69.9002L274.554 74.0864C274.739 74.1096 274.908 73.9781 274.931 73.7928L276.958 57.6039C276.981 57.4186 276.85 57.2495 276.664 57.2263Z" fill="#BEC1DC"/>
<path fill-rule="evenodd" clip-rule="evenodd" d="M255.615 11.0037C256.624 10.6441 257.686 10.1663 258.505 9.47439C259.477 8.65263 259.873 7.59426 260.139 6.4802C260.48 5.04892 260.616 3.52425 261.029 2.09065C261.182 1.55827 261.477 1.35703 261.603 1.26772C261.923 1.04212 262.246 0.981819 262.55 1.00444C262.91 1.03053 263.405 1.16681 263.73 1.77052C263.776 1.85693 263.837 1.98859 263.877 2.16895C263.907 2.30117 263.926 2.71466 263.957 2.88516C264.036 3.30503 264.101 3.72492 264.163 4.14711C264.367 5.5523 264.485 6.74579 265.132 8.03673C266.009 9.7893 266.888 10.8616 268.081 11.3366C269.234 11.7959 270.612 11.7095 272.373 11.3493C272.541 11.3088 272.707 11.2739 272.871 11.2455C273.648 11.1098 274.39 11.6196 274.542 12.3932C274.695 13.1663 274.201 13.9196 273.432 14.0895C273.271 14.1249 273.113 14.1585 272.956 14.1893C270.576 14.7785 267.821 16.8814 266.22 18.7227C265.726 19.2904 265.004 20.8777 264.267 21.8902C263.723 22.6372 263.111 23.1296 262.598 23.3036C262.254 23.4207 261.964 23.4027 261.725 23.3436C261.377 23.2578 261.088 23.0693 260.866 22.7694C260.746 22.6053 260.634 22.3855 260.58 22.1048C260.555 21.9697 260.552 21.6264 260.553 21.471C260.402 20.9543 260.219 20.4497 260.085 19.9283C259.765 18.6844 259.138 17.8968 258.394 16.8564C257.697 15.8827 256.949 15.2709 255.852 14.7826C255.71 14.7478 254.558 14.4659 254.152 14.3041C253.558 14.0669 253.275 13.6696 253.172 13.4557C252.998 13.0926 252.98 12.7754 253.015 12.511C253.066 12.1207 253.241 11.7866 253.552 11.5169C253.745 11.3493 254.032 11.1864 254.417 11.1069C254.715 11.0449 255.504 11.0089 255.615 11.0037ZM262.368 8.97622C262.422 9.09511 262.479 9.21459 262.539 9.33522C263.824 11.902 265.261 13.335 267.008 14.0304L267.066 14.053C265.898 14.9206 264.84 15.8902 264.032 16.8199C263.699 17.2026 263.258 17.9977 262.782 18.8131C262.349 17.4068 261.642 16.4128 260.752 15.1688C260.072 14.2195 259.36 13.505 258.485 12.9227C259.164 12.5742 259.812 12.1659 260.376 11.6892C261.316 10.8953 261.937 9.97545 262.368 8.97622Z" fill="#2E368E"/>
<circle cx="74.6544" cy="28.6544" r="5.65438" fill="#2E368E"/>
<path d="M130.1 250.529H126.252L120.041 239.728H119.953C119.979 240.177 120.002 240.63 120.021 241.085C120.041 241.541 120.061 241.997 120.08 242.453C120.1 242.902 120.119 243.354 120.139 243.81V250.529H117.434V236.251H121.252L127.453 246.945H127.521C127.508 246.502 127.492 246.063 127.473 245.626C127.453 245.19 127.434 244.754 127.414 244.318C127.401 243.882 127.388 243.445 127.375 243.009V236.251H130.1V250.529ZM143.391 245.05C143.391 245.962 143.267 246.769 143.02 247.472C142.779 248.175 142.424 248.771 141.955 249.259C141.493 249.741 140.933 250.106 140.275 250.353C139.624 250.6 138.889 250.724 138.068 250.724C137.3 250.724 136.594 250.6 135.949 250.353C135.311 250.106 134.755 249.741 134.279 249.259C133.811 248.771 133.446 248.175 133.186 247.472C132.932 246.769 132.805 245.962 132.805 245.05C132.805 243.839 133.02 242.814 133.449 241.974C133.879 241.134 134.491 240.496 135.285 240.06C136.079 239.624 137.027 239.406 138.127 239.406C139.149 239.406 140.054 239.624 140.842 240.06C141.636 240.496 142.258 241.134 142.707 241.974C143.163 242.814 143.391 243.839 143.391 245.05ZM135.842 245.05C135.842 245.766 135.92 246.369 136.076 246.857C136.232 247.345 136.477 247.713 136.809 247.96C137.141 248.208 137.574 248.332 138.107 248.332C138.635 248.332 139.061 248.208 139.387 247.96C139.719 247.713 139.96 247.345 140.109 246.857C140.266 246.369 140.344 245.766 140.344 245.05C140.344 244.328 140.266 243.729 140.109 243.253C139.96 242.772 139.719 242.41 139.387 242.169C139.055 241.929 138.622 241.808 138.088 241.808C137.3 241.808 136.727 242.078 136.369 242.619C136.018 243.159 135.842 243.97 135.842 245.05ZM155.842 236.251C157.684 236.251 159.029 236.649 159.875 237.443C160.721 238.231 161.145 239.318 161.145 240.705C161.145 241.33 161.05 241.929 160.861 242.501C160.673 243.068 160.363 243.572 159.934 244.015C159.51 244.458 158.944 244.809 158.234 245.07C157.525 245.324 156.649 245.451 155.607 245.451H154.309V250.529H151.281V236.251H155.842ZM155.686 238.732H154.309V242.97H155.305C155.871 242.97 156.363 242.895 156.779 242.746C157.196 242.596 157.518 242.361 157.746 242.042C157.974 241.723 158.088 241.313 158.088 240.812C158.088 240.109 157.893 239.588 157.502 239.25C157.111 238.904 156.506 238.732 155.686 238.732ZM169.699 239.406C169.849 239.406 170.021 239.416 170.217 239.435C170.419 239.448 170.581 239.468 170.705 239.494L170.48 242.287C170.383 242.254 170.243 242.231 170.061 242.218C169.885 242.199 169.732 242.189 169.602 242.189C169.217 242.189 168.843 242.238 168.479 242.335C168.12 242.433 167.798 242.593 167.512 242.814C167.225 243.029 166.997 243.315 166.828 243.673C166.665 244.025 166.584 244.458 166.584 244.972V250.529H163.605V239.611H165.861L166.301 241.447H166.447C166.662 241.076 166.929 240.737 167.248 240.431C167.574 240.119 167.941 239.871 168.352 239.689C168.768 239.5 169.217 239.406 169.699 239.406ZM182.609 245.05C182.609 245.962 182.486 246.769 182.238 247.472C181.997 248.175 181.643 248.771 181.174 249.259C180.712 249.741 180.152 250.106 179.494 250.353C178.843 250.6 178.107 250.724 177.287 250.724C176.519 250.724 175.812 250.6 175.168 250.353C174.53 250.106 173.973 249.741 173.498 249.259C173.029 248.771 172.665 248.175 172.404 247.472C172.15 246.769 172.023 245.962 172.023 245.05C172.023 243.839 172.238 242.814 172.668 241.974C173.098 241.134 173.71 240.496 174.504 240.06C175.298 239.624 176.245 239.406 177.346 239.406C178.368 239.406 179.273 239.624 180.061 240.06C180.855 240.496 181.477 241.134 181.926 241.974C182.382 242.814 182.609 243.839 182.609 245.05ZM175.061 245.05C175.061 245.766 175.139 246.369 175.295 246.857C175.451 247.345 175.695 247.713 176.027 247.96C176.359 248.208 176.792 248.332 177.326 248.332C177.854 248.332 178.28 248.208 178.605 247.96C178.938 247.713 179.178 247.345 179.328 246.857C179.484 246.369 179.562 245.766 179.562 245.05C179.562 244.328 179.484 243.729 179.328 243.253C179.178 242.772 178.938 242.41 178.605 242.169C178.273 241.929 177.84 241.808 177.307 241.808C176.519 241.808 175.946 242.078 175.588 242.619C175.236 243.159 175.061 243.97 175.061 245.05ZM184.191 255.333C183.853 255.333 183.501 255.307 183.137 255.255C182.772 255.21 182.469 255.154 182.229 255.089V252.746C182.469 252.811 182.697 252.856 182.912 252.882C183.12 252.915 183.358 252.931 183.625 252.931C184.029 252.931 184.37 252.817 184.65 252.589C184.93 252.368 185.07 251.929 185.07 251.271V239.611H188.049V251.71C188.049 252.375 187.922 252.98 187.668 253.527C187.414 254.08 187.004 254.52 186.438 254.845C185.871 255.171 185.122 255.333 184.191 255.333ZM184.943 236.789C184.943 236.229 185.1 235.848 185.412 235.646C185.731 235.438 186.115 235.333 186.564 235.333C187.007 235.333 187.388 235.438 187.707 235.646C188.026 235.848 188.186 236.229 188.186 236.789C188.186 237.342 188.026 237.726 187.707 237.941C187.388 238.149 187.007 238.253 186.564 238.253C186.115 238.253 185.731 238.149 185.412 237.941C185.1 237.726 184.943 237.342 184.943 236.789ZM195.686 239.406C196.695 239.406 197.564 239.601 198.293 239.992C199.022 240.376 199.585 240.936 199.982 241.671C200.38 242.407 200.578 243.306 200.578 244.367V245.812H193.537C193.57 246.652 193.82 247.313 194.289 247.794C194.764 248.27 195.422 248.507 196.262 248.507C196.958 248.507 197.596 248.436 198.176 248.292C198.755 248.149 199.351 247.934 199.963 247.648V249.953C199.423 250.22 198.856 250.415 198.264 250.539C197.678 250.662 196.965 250.724 196.125 250.724C195.031 250.724 194.061 250.522 193.215 250.119C192.375 249.715 191.714 249.1 191.232 248.273C190.757 247.446 190.52 246.404 190.52 245.148C190.52 243.872 190.734 242.811 191.164 241.964C191.6 241.111 192.206 240.473 192.98 240.05C193.755 239.621 194.657 239.406 195.686 239.406ZM195.705 241.525C195.126 241.525 194.644 241.71 194.26 242.082C193.882 242.453 193.664 243.035 193.605 243.83H197.785C197.779 243.387 197.697 242.993 197.541 242.648C197.391 242.303 197.163 242.029 196.857 241.828C196.558 241.626 196.174 241.525 195.705 241.525ZM207.434 250.724C206.353 250.724 205.432 250.529 204.67 250.138C203.908 249.741 203.329 249.129 202.932 248.302C202.535 247.475 202.336 246.417 202.336 245.128C202.336 243.794 202.561 242.707 203.01 241.867C203.465 241.02 204.094 240.399 204.895 240.001C205.702 239.604 206.636 239.406 207.697 239.406C208.452 239.406 209.104 239.481 209.65 239.63C210.204 239.774 210.686 239.946 211.096 240.148L210.217 242.453C209.748 242.264 209.312 242.111 208.908 241.994C208.505 241.87 208.101 241.808 207.697 241.808C207.176 241.808 206.743 241.932 206.398 242.179C206.053 242.42 205.796 242.785 205.627 243.273C205.458 243.761 205.373 244.373 205.373 245.109C205.373 245.832 205.464 246.431 205.646 246.906C205.829 247.381 206.092 247.736 206.438 247.97C206.783 248.198 207.202 248.312 207.697 248.312C208.316 248.312 208.866 248.231 209.348 248.068C209.829 247.899 210.298 247.664 210.754 247.365V249.914C210.298 250.2 209.82 250.405 209.318 250.529C208.824 250.659 208.195 250.724 207.434 250.724ZM217.893 248.351C218.218 248.351 218.534 248.319 218.84 248.253C219.152 248.188 219.462 248.107 219.768 248.009V250.226C219.449 250.369 219.051 250.486 218.576 250.578C218.107 250.675 217.593 250.724 217.033 250.724C216.382 250.724 215.796 250.62 215.275 250.412C214.761 250.197 214.354 249.829 214.055 249.308C213.762 248.781 213.615 248.048 213.615 247.111V241.847H212.189V240.587L213.83 239.591L214.689 237.287H216.594V239.611H219.65V241.847H216.594V247.111C216.594 247.528 216.711 247.84 216.945 248.048C217.186 248.25 217.502 248.351 217.893 248.351ZM229.602 247.287C229.602 248.029 229.426 248.657 229.074 249.171C228.729 249.679 228.212 250.067 227.521 250.333C226.831 250.594 225.972 250.724 224.943 250.724C224.182 250.724 223.527 250.675 222.98 250.578C222.44 250.48 221.893 250.317 221.34 250.089V247.628C221.932 247.895 222.567 248.117 223.244 248.292C223.928 248.462 224.527 248.546 225.041 248.546C225.62 248.546 226.034 248.462 226.281 248.292C226.535 248.117 226.662 247.889 226.662 247.609C226.662 247.427 226.61 247.264 226.506 247.121C226.408 246.971 226.193 246.805 225.861 246.623C225.529 246.434 225.008 246.19 224.299 245.89C223.615 245.604 223.052 245.314 222.609 245.021C222.173 244.728 221.848 244.383 221.633 243.986C221.424 243.582 221.32 243.071 221.32 242.453C221.32 241.444 221.711 240.685 222.492 240.177C223.28 239.663 224.331 239.406 225.646 239.406C226.324 239.406 226.968 239.474 227.58 239.611C228.199 239.748 228.833 239.966 229.484 240.265L228.586 242.414C228.046 242.179 227.535 241.987 227.053 241.837C226.577 241.688 226.092 241.613 225.598 241.613C225.161 241.613 224.833 241.671 224.611 241.789C224.39 241.906 224.279 242.085 224.279 242.326C224.279 242.501 224.335 242.658 224.445 242.794C224.562 242.931 224.784 243.084 225.109 243.253C225.441 243.416 225.926 243.628 226.564 243.888C227.183 244.142 227.72 244.409 228.176 244.689C228.632 244.962 228.983 245.304 229.23 245.714C229.478 246.118 229.602 246.642 229.602 247.287Z" fill="#242424"/>
</svg>
