<svg width="25" height="24" viewBox="0 0 25 24" fill="none" xmlns="http://www.w3.org/2000/svg">
<path d="M19.6626 2.75C19.6626 3.1297 19.3804 3.44349 19.0144 3.49315L18.9126 3.5L5.41398 3.5C4.99976 3.5 4.66398 3.16421 4.66398 2.75C4.66398 2.3703 4.94613 2.05651 5.31221 2.00685L5.41398 2L18.9126 2C19.3268 2 19.6626 2.33579 19.6626 2.75ZM17.7795 15.2098L17.8737 15.293C18.2341 15.6535 18.2618 16.2207 17.9567 16.613L17.8735 16.7072L12.8759 21.7038C12.5155 22.064 11.9487 22.0919 11.5564 21.7873L11.4622 21.7042L6.45877 16.7076C6.06798 16.3173 6.06754 15.6842 6.4578 15.2934C6.81804 14.9326 7.38525 14.9045 7.77775 15.2093L7.87201 15.2924L11.1666 18.581L11.1665 6C11.1665 5.48716 11.5525 5.06449 12.0499 5.00673L12.1665 5C12.6793 5 13.102 5.38604 13.1598 5.88338L13.1665 6L13.1666 18.584L16.4594 15.2928C16.82 14.9324 17.3872 14.9047 17.7795 15.2098L17.8737 15.293L17.7795 15.2098Z" fill="#242424"/>
</svg>
