<svg width="25" height="24" viewBox="0 0 25 24" fill="none" xmlns="http://www.w3.org/2000/svg">
  <path d="M12.5 9.00462C14.7091 9.00462 16.5 10.7955 16.5 13.0046C16.5 15.2138 14.7091 17.0046 12.5 17.0046C10.2909 17.0046 8.5 15.2138 8.5 13.0046C8.5 10.7955 10.2909 9.00462 12.5 9.00462ZM12.5 5.5C17.1135 5.5 21.0961 8.65001 22.2011 13.0644C22.3017 13.4662 22.0575 13.8735 21.6557 13.9741C21.2539 14.0746 20.8466 13.8305 20.746 13.4286C19.8071 9.67796 16.4214 7 12.5 7C8.57693 7 5.19009 9.68026 4.25285 13.4332C4.15249 13.835 3.74535 14.0794 3.34348 13.9791C2.94161 13.8787 2.69719 13.4716 2.79755 13.0697C3.90064 8.65272 7.88448 5.5 12.5 5.5Z" fill="#111111" />
  <path d="M3 6L22 18" stroke="#111111" strokeWidth="2" />
</svg>
