<svg width="20" height="20" viewBox="0 0 20 20" fill="none" xmlns="http://www.w3.org/2000/svg">
<path d="M10 0C15.5228 0 20 4.47715 20 10C20 15.5228 15.5228 20 10 20C8.38171 20 6.81782 19.6146 5.41286 18.888L1.58704 19.9553C0.922123 20.141 0.232581 19.7525 0.0469058 19.0876C-0.0145358 18.8676 -0.014506 18.6349 0.046948 18.4151L1.11461 14.5922C0.386366 13.186 0 11.6203 0 10C0 4.47715 4.47715 0 10 0ZM10 1.5C5.30558 1.5 1.5 5.30558 1.5 10C1.5 11.4696 1.87277 12.8834 2.57303 14.1375L2.72368 14.4072L1.61096 18.3914L5.59755 17.2792L5.86709 17.4295C7.12006 18.1281 8.53218 18.5 10 18.5C14.6944 18.5 18.5 14.6944 18.5 10C18.5 5.30558 14.6944 1.5 10 1.5ZM10 13.5C10.5523 13.5 11 13.9477 11 14.5C11 15.0523 10.5523 15.5 10 15.5C9.44772 15.5 9 15.0523 9 14.5C9 13.9477 9.44772 13.5 10 13.5ZM10 4.75C11.5188 4.75 12.75 5.98122 12.75 7.5C12.75 8.51075 12.4525 9.07404 11.6989 9.85858L11.5303 10.0303C10.9084 10.6522 10.75 10.9163 10.75 11.5C10.75 11.9142 10.4142 12.25 10 12.25C9.58579 12.25 9.25 11.9142 9.25 11.5C9.25 10.4892 9.54754 9.92596 10.3011 9.14142L10.4697 8.96967C11.0916 8.34777 11.25 8.08372 11.25 7.5C11.25 6.80964 10.6904 6.25 10 6.25C9.35279 6.25 8.82047 6.74187 8.75645 7.37219L8.75 7.5C8.75 7.91421 8.41421 8.25 8 8.25C7.58579 8.25 7.25 7.91421 7.25 7.5C7.25 5.98122 8.48122 4.75 10 4.75Z" fill="#2E368E"/>
</svg>
