<svg width="16" height="20" viewBox="0 0 16 20" fill="none" xmlns="http://www.w3.org/2000/svg">
<path d="M15.9998 14.2461C15.9998 13.0041 14.9929 11.9972 13.7509 11.9972H2.24912C1.0071 11.9972 0.000244141 13.0041 0.000244141 14.2461V14.8238C0.000244141 15.7166 0.318763 16.5801 0.898524 17.259C2.46483 19.0932 4.85084 19.9984 7.9967 19.9984C11.1421 19.9984 13.5293 19.0935 15.0986 17.26C15.6802 16.5807 15.9998 15.7158 15.9998 14.8215V14.2461ZM2.24912 13.4972H13.7509C14.1645 13.4972 14.4998 13.8325 14.4998 14.2461V14.8215C14.4998 15.3581 14.308 15.877 13.9591 16.2846C12.7026 17.7526 10.735 18.4984 7.9967 18.4984C5.2584 18.4984 3.29252 17.7526 2.03921 16.2849C1.69135 15.8776 1.50024 15.3595 1.50024 14.8238V14.2461C1.50024 13.8325 1.83553 13.4972 2.24912 13.4972ZM12.9967 5.00195C12.9967 2.24053 10.7581 0.00195312 7.9967 0.00195312C6.3462 0.00195312 4.88249 0.801672 3.9719 2.03476C3.90114 2.01263 3.82586 2.00071 3.7478 2.00071L1.25 2.00071C0.835787 2.0007 0.500001 2.33649 0.500001 2.75071L0.5 8.24948C0.5 9.76828 1.73125 10.9995 3.25005 10.9995L3.50001 10.9995V10.9952C3.50345 10.9952 3.50689 10.9952 3.51033 10.9952C4.06124 10.9952 4.50784 10.5486 4.50784 9.9977C4.50784 9.44678 4.06124 9.00018 3.51033 9.00018C3.19095 9.00018 2.90664 9.15028 2.72406 9.38377C2.29649 9.18519 2 8.75196 2 8.24948V7.99902H2.7478C3.12848 7.99902 3.48076 7.87748 3.76796 7.67108C4.65395 9.07182 6.2167 10.002 7.9967 10.002C10.7581 10.002 12.9967 7.76338 12.9967 5.00195ZM2.9978 4.896C2.99707 4.93123 2.9967 4.96655 2.9967 5.00195C2.9967 5.03736 2.99707 5.07268 2.9978 5.10791V6.24902C2.9978 6.38709 2.88587 6.49902 2.7478 6.49902H2L2 3.50071H2.9978L2.9978 4.896ZM4.4978 5.09058V4.91333C4.54483 3.02128 6.09334 1.50195 7.9967 1.50195C9.9297 1.50195 11.4967 3.06896 11.4967 5.00195C11.4967 6.93495 9.9297 8.50195 7.9967 8.50195C6.09334 8.50195 4.54483 6.98262 4.4978 5.09058Z" fill="#303030"/>
</svg>
