<svg width="21" height="21" viewBox="0 0 21 21" fill="none" xmlns="http://www.w3.org/2000/svg">
<path d="M11.209 1.10409C10.7138 0.100714 9.283 0.100724 8.7878 1.10409L6.42988 5.88182L1.15735 6.64796C0.0500505 6.80886 -0.39209 8.16966 0.40916 8.95066L4.2244 12.6696L3.32374 17.9208C3.13459 19.0237 4.29213 19.8647 5.28252 19.344L9.2414 17.2627C9.1007 16.7615 9.0185 16.2358 9.0028 15.6935L4.85353 17.8749L5.71614 12.8455C5.79125 12.4075 5.64606 11.9607 5.32788 11.6505L1.67382 8.08866L6.72361 7.35489C7.16332 7.29099 7.54344 7.01482 7.74008 6.61638L9.9984 2.04049L12.2568 6.61638C12.4534 7.01482 12.8335 7.29099 13.2732 7.35489L18.323 8.08866L17.1656 9.21686C17.7016 9.35856 18.2104 9.56696 18.6827 9.83276L19.5877 8.95066C20.3889 8.16966 19.9468 6.80886 18.8395 6.64796L13.567 5.88182L11.209 1.10409ZM21 15.501C21 18.5385 18.5376 21.001 15.5 21.001C12.4624 21.001 10 18.5385 10 15.501C10 12.4634 12.4624 10.001 15.5 10.001C18.5376 10.001 21 12.4634 21 15.501ZM18.8536 13.1474C18.6583 12.9522 18.3417 12.9522 18.1464 13.1474L14.5 16.7939L12.8536 15.1474C12.6583 14.9522 12.3417 14.9522 12.1464 15.1474C11.9512 15.3427 11.9512 15.6593 12.1464 15.8545L14.1464 17.8545C14.3417 18.0498 14.6583 18.0498 14.8536 17.8545L18.8536 13.8545C19.0488 13.6593 19.0488 13.3427 18.8536 13.1474Z" fill="#2E368E"/>
</svg>
