<svg width="16" height="20" viewBox="0 0 16 20" fill="none" xmlns="http://www.w3.org/2000/svg">
<path d="M15.9995 14.2461C15.9995 13.0041 14.9927 11.9972 13.7506 11.9972H2.24888C1.00686 11.9972 0 13.0041 0 14.2461V14.8238C0 15.7166 0.318519 16.5801 0.89828 17.259C2.46458 19.0932 4.8506 19.9984 7.99646 19.9984C11.1418 19.9984 13.529 19.0935 15.0984 17.26C15.6799 16.5807 15.9995 15.7158 15.9995 14.8215V14.2461ZM2.24888 13.4972H13.7506C14.1642 13.4972 14.4995 13.8325 14.4995 14.2461V14.8215C14.4995 15.3581 14.3078 15.877 13.9588 16.2846C12.7024 17.7526 10.7348 18.4984 7.99646 18.4984C5.25815 18.4984 3.29228 17.7526 2.03897 16.2849C1.69111 15.8776 1.5 15.3595 1.5 14.8238V14.2461C1.5 13.8325 1.83528 13.4972 2.24888 13.4972ZM12.9965 5.00195C12.9965 2.24053 10.7579 0.00195312 7.99646 0.00195312C6.34596 0.00195312 4.88224 0.801672 3.97166 2.03476C3.90089 2.01263 3.82562 2.00071 3.74756 2.00071L1.24976 2.00071C0.835543 2.0007 0.499757 2.33649 0.499757 2.75071L0.499756 8.24948C0.499756 9.76828 1.731 10.9995 3.2498 10.9995L3.49977 10.9995V10.9952C3.5032 10.9952 3.50664 10.9952 3.51009 10.9952C4.061 10.9952 4.5076 10.5486 4.5076 9.9977C4.5076 9.44678 4.061 9.00018 3.51009 9.00018C3.19071 9.00018 2.90639 9.15028 2.72382 9.38377C2.29624 9.18519 1.99976 8.75196 1.99976 8.24948V7.99902H2.74756C3.12823 7.99902 3.48052 7.87748 3.76772 7.67108C4.6537 9.07182 6.21646 10.002 7.99646 10.002C10.7579 10.002 12.9965 7.76338 12.9965 5.00195ZM2.99756 4.896C2.99683 4.93123 2.99646 4.96655 2.99646 5.00195C2.99646 5.03736 2.99683 5.07268 2.99756 5.10791V6.24902C2.99756 6.38709 2.88563 6.49902 2.74756 6.49902H1.99976L1.99976 3.50071H2.99756L2.99756 4.896ZM4.49756 5.09058V4.91333C4.54458 3.02128 6.09309 1.50195 7.99646 1.50195C9.92945 1.50195 11.4965 3.06896 11.4965 5.00195C11.4965 6.93495 9.92945 8.50195 7.99646 8.50195C6.09309 8.50195 4.54458 6.98262 4.49756 5.09058Z" fill="#2E368E"/>
</svg>
