<svg width="12" height="12" viewBox="0 0 12 12" fill="none" xmlns="http://www.w3.org/2000/svg">
<path d="M9.49999 3.50207C9.49999 4.0555 9.05135 4.50414 8.49792 4.50414C7.94449 4.50414 7.49585 4.0555 7.49585 3.50207C7.49585 2.94864 7.94449 2.5 8.49792 2.5C9.05135 2.5 9.49999 2.94864 9.49999 3.50207ZM0 2.5C0 1.11929 1.11929 0 2.5 0H9.5C10.8807 0 12 1.11929 12 2.5V9.5C12 10.8807 10.8807 12 9.5 12H2.5C1.11929 12 0 10.8807 0 9.5V2.5ZM2.5 1C1.67157 1 1 1.67157 1 2.5V9.5C1 9.73159 1.05248 9.95092 1.1462 10.1467L4.79796 6.49499C5.46185 5.8311 6.53823 5.8311 7.20212 6.49499L10.8538 10.1467C10.9475 9.95088 11 9.73157 11 9.5V2.5C11 1.67157 10.3284 1 9.5 1H2.5ZM10.1467 10.8538L6.49501 7.2021C6.22164 6.92873 5.77843 6.92873 5.50506 7.2021L1.85333 10.8538C2.04914 10.9475 2.26844 11 2.5 11H9.5C9.73158 11 9.9509 10.9475 10.1467 10.8538Z" fill="#242424"/>
</svg>