<svg width="29" height="28" viewBox="0 0 29 28" fill="none" xmlns="http://www.w3.org/2000/svg">
<path d="M9.3335 6C6.29593 6 3.8335 8.46243 3.8335 11.5C3.8335 13.8359 5.28973 15.8317 7.3439 16.6291C7.38327 15.9293 7.53334 15.2591 7.77688 14.6357C6.62501 14.0627 5.8335 12.8738 5.8335 11.5C5.8335 9.567 7.4005 8 9.3335 8H15.3335C17.2665 8 18.8335 9.567 18.8335 11.5C18.8335 13.433 17.2665 15 15.3335 15H14.8335C14.2812 15 13.8335 15.4477 13.8335 16C13.8335 16.5523 14.2812 17 14.8335 17H15.3335C18.3711 17 20.8335 14.5376 20.8335 11.5C20.8335 8.46243 18.3711 6 15.3335 6H9.3335ZM21.947 14.2134C23.0525 14.6556 23.8335 15.7366 23.8335 17C23.8335 18.6569 22.4903 20 20.8335 20H13.8335C12.1766 20 10.8335 18.6569 10.8335 17C10.8335 15.3431 12.1766 14 13.8335 14H14.8335C15.3857 14 15.8335 13.5523 15.8335 13C15.8335 12.4477 15.3858 12 14.8336 12H13.8335C11.0721 12 8.8335 14.2386 8.8335 17C8.8335 19.7614 11.0721 22 13.8335 22H20.8335C23.5949 22 25.8335 19.7614 25.8335 17C25.8335 14.7598 24.3602 12.8636 22.3297 12.2277C22.3057 12.9229 22.1726 13.5903 21.947 14.2134Z" fill="#242424"/>
</svg>
