<svg width="86" height="86" viewBox="0 0 86 86" fill="none" xmlns="http://www.w3.org/2000/svg">
<rect x="0.458984" width="85.0826" height="85.0826" rx="12" fill="#2E368E"/>
<g clip-path="url(#clip0_2198_13238)">
<path d="M32.4366 51.7318C29.8628 48.6645 30.2629 44.0915 33.3302 41.5178L36.0113 39.268C36.5402 38.8243 37.3286 38.8932 37.7724 39.4221C38.2161 39.9509 38.1472 40.7394 37.6183 41.1831L34.9372 43.4329C32.9276 45.1191 32.6654 48.1152 34.3517 50.1248C36.0379 52.1344 39.034 52.3966 41.0436 50.7103L43.7248 48.4605C44.2536 48.0168 45.0421 48.0858 45.4858 48.6146C45.9296 49.1435 45.8606 49.9319 45.3318 50.3757L42.6506 52.6254C39.5833 55.1992 35.0103 54.7991 32.4366 51.7318ZM53.8858 33.7337C51.3121 30.6665 46.7391 30.2664 43.6718 32.8401L40.9906 35.0899C40.4618 35.5336 40.3928 36.3221 40.8366 36.8509C41.2803 37.3798 42.0688 37.4488 42.5976 37.005L45.2788 34.7552C47.2884 33.069 50.2845 33.3311 51.9707 35.3407C53.657 37.3503 53.3948 40.3464 51.3852 42.0327L48.7041 44.2824C48.1752 44.7262 48.1063 45.5146 48.55 46.0435C48.9938 46.5723 49.7822 46.6413 50.3111 46.1975L52.9922 43.9478C56.0595 41.374 56.4596 36.801 53.8858 33.7337ZM37.5699 45.7926C37.0411 46.2364 36.9721 47.0248 37.4159 47.5537C37.8596 48.0825 38.6481 48.1515 39.1769 47.7078L48.7525 39.6729C49.2813 39.2292 49.3503 38.4407 48.9065 37.9119C48.4628 37.383 47.6743 37.314 47.1455 37.7578L37.5699 45.7926Z" fill="white"/>
</g>
<defs>
<clipPath id="clip0_2198_13238">
<rect width="32" height="32" fill="white" transform="translate(20.459 40.5692) rotate(-40)"/>
</clipPath>
</defs>
</svg>
