<?xml version="1.0" encoding="utf-8"?>
<!-- Generator: Adobe Illustrator 16.0.0, SVG Export Plug-In . SVG Version: 6.00 Build 0)  -->
<!DOCTYPE svg PUBLIC "-//W3C//DTD SVG 1.0//EN" "http://www.w3.org/TR/2001/REC-SVG-20010904/DTD/svg10.dtd">
<svg version="1.0" id="Layer_1" xmlns="http://www.w3.org/2000/svg" xmlns:xlink="http://www.w3.org/1999/xlink" x="0px" y="0px"
	 width="100px" height="100px" viewBox="0 0 100 100" enable-background="new 0 0 100 100" xml:space="preserve">
<path fill="none" stroke="#000000" stroke-width="2" stroke-linecap="round" stroke-linejoin="round" stroke-miterlimit="10" d="
	M76.429,40h-8.616L70,27.502H15l8.764,50.101C24.442,81.672,28.373,85,32.497,85h20.002c4.124,0,8.055-3.328,8.733-7.396l1.33-7.6
	h9.58C79.243,70.004,85,64.248,85,57.143v-8.571C85,43.838,81.162,40,76.429,40z M78.751,57.143c0,3.646-2.967,6.609-6.608,6.609
	h-8.488l3.063-17.501h9.712c1.281,0,2.322,1.042,2.322,2.321V57.143z"/>
<path fill="none" stroke="#000000" stroke-width="2" stroke-linecap="round" stroke-linejoin="round" stroke-miterlimit="10" d="
	M26.875,21.251L33.124,15L26.875,21.251z"/>
<path fill="none" stroke="#000000" stroke-width="2" stroke-linecap="round" stroke-linejoin="round" stroke-miterlimit="10" d="
	M36.874,21.251L43.125,15L36.874,21.251z"/>
<path fill="none" stroke="#000000" stroke-width="2" stroke-linecap="round" stroke-linejoin="round" stroke-miterlimit="10" d="
	M46.873,21.251L53.126,15L46.873,21.251z"/>
<path fill="none" stroke="#000000" stroke-width="2" stroke-linecap="round" stroke-linejoin="round" stroke-miterlimit="10" d="
	M56.874,21.251L63.124,15L56.874,21.251z"/>
</svg>
