<svg width="346" height="183" viewBox="0 0 346 183" fill="none" xmlns="http://www.w3.org/2000/svg">
<path opacity="0.6" d="M168.197 146.676C208.701 146.676 241.535 113.841 241.535 73.338C241.535 32.8345 208.701 0 168.197 0C127.694 0 94.8594 32.8345 94.8594 73.338C94.8594 113.841 127.694 146.676 168.197 146.676Z" fill="url(#paint0_linear_2317_19575)"/>
<g filter="url(#filter0_d_2317_19575)">
<rect x="130.917" y="21.1191" width="76.1108" height="94.7458" rx="16" fill="white"/>
</g>
<rect x="137.64" y="33.342" width="50" height="1" rx="0.5" fill="#2E368E"/>
<rect x="137.64" y="52.342" width="61.115" height="1" rx="0.5" fill="#D5D5D5"/>
<rect x="137.64" y="71.342" width="61.115" height="1" rx="0.5" fill="#D5D5D5"/>
<rect x="137.64" y="90.342" width="61.115" height="1" rx="0.5" fill="#D5D5D5"/>
<rect x="137.64" y="109.342" width="61.115" height="1" rx="0.5" fill="#D5D5D5"/>
<g filter="url(#filter1_d_2317_19575)">
<path d="M235.515 10.6487H198.797C197.086 10.6487 195.699 12.1084 195.699 13.9091V32.0719C195.699 33.8726 197.086 35.3323 198.797 35.3323H235.515C237.227 35.3323 238.614 33.8726 238.614 32.0719V13.9091C238.614 12.1084 237.227 10.6487 235.515 10.6487Z" fill="white"/>
</g>
<path d="M204.867 26.8907C206.892 26.8907 208.534 25.249 208.534 23.2238C208.534 21.1986 206.892 19.5569 204.867 19.5569C202.841 19.5569 201.2 21.1986 201.2 23.2238C201.2 25.249 202.841 26.8907 204.867 26.8907Z" fill="#CCC6D9"/>
<rect x="213.423" y="19.5569" width="19.5568" height="7.3338" rx="3.6669" fill="#D5D5D5"/>
<path fill-rule="evenodd" clip-rule="evenodd" d="M189.654 120.13C197.526 120.13 204.841 117.748 210.92 113.667L235.793 137.411L244.814 126.945L220.812 104.033C225.245 97.7951 227.851 90.1683 227.851 81.9327C227.851 60.8372 210.75 43.7358 189.654 43.7358C168.559 43.7358 151.458 60.8372 151.458 81.9327C151.458 103.028 168.559 120.13 189.654 120.13ZM222.234 81.9327C222.234 99.7924 207.756 114.271 189.896 114.271C172.036 114.271 157.558 99.7924 157.558 81.9327C157.558 64.073 172.036 49.5948 189.896 49.5948C207.756 49.5948 222.234 64.073 222.234 81.9327Z" fill="#2E368E"/>
<g filter="url(#filter2_b_2317_19575)">
<path d="M189.893 114.896C208.288 114.896 223.201 100.12 223.201 81.8939C223.201 63.6674 208.288 48.8918 189.893 48.8918C171.498 48.8918 156.585 63.6674 156.585 81.8939C156.585 100.12 171.498 114.896 189.893 114.896Z" fill="white" fill-opacity="0.3"/>
</g>
<path d="M195.652 81.894L203.712 73.8648C204.467 73.0704 204.881 72.0148 204.866 70.9221C204.85 69.8293 204.406 68.7857 203.629 68.013C202.851 67.2403 201.801 66.7993 200.702 66.7838C199.603 66.7684 198.541 67.1796 197.741 67.9301L189.663 75.9593L181.603 67.9301C181.215 67.5221 180.748 67.1956 180.231 66.9698C179.714 66.744 179.157 66.6236 178.592 66.6157C178.028 66.6077 177.467 66.7124 176.944 66.9235C176.42 67.1346 175.945 67.4479 175.546 67.8448C175.146 68.2417 174.831 68.7142 174.619 69.2343C174.406 69.7544 174.301 70.3116 174.309 70.8728C174.317 71.4341 174.438 71.988 174.665 72.5019C174.892 73.0158 175.221 73.4792 175.632 73.8648L183.705 81.894L175.632 89.9232C175.221 90.3087 174.892 90.7721 174.665 91.286C174.438 91.7999 174.317 92.3539 174.309 92.9151C174.301 93.4764 174.406 94.0335 174.619 94.5536C174.831 95.0737 175.146 95.5462 175.546 95.9431C175.945 96.34 176.42 96.6533 176.944 96.8644C177.467 97.0756 178.028 97.1802 178.592 97.1723C179.157 97.1643 179.714 97.0439 180.231 96.8181C180.748 96.5924 181.215 96.2658 181.603 95.8578L189.681 87.8286L197.759 95.8578C198.566 96.5641 199.613 96.938 200.688 96.9034C201.763 96.8688 202.783 96.4282 203.542 95.6715C204.301 94.9148 204.742 93.8989 204.773 92.8308C204.805 91.7628 204.425 90.7229 203.712 89.9232L195.652 81.894Z" fill="#2E368E"/>
<path d="M235.791 137.412L244.812 126.946L246.17 128.243C247.489 129.502 248.278 131.26 248.365 133.131C248.451 135.001 247.828 136.832 246.632 138.219C245.437 139.607 243.766 140.437 241.988 140.528C240.211 140.62 238.471 139.964 237.153 138.705L235.794 137.408L235.791 137.412Z" fill="#E1DCEB"/>
<path fill-rule="evenodd" clip-rule="evenodd" d="M112.207 120.026C112.861 119.781 113.55 119.455 114.081 118.982C114.711 118.422 114.968 117.699 115.14 116.939C115.361 115.962 115.45 114.922 115.718 113.943C115.817 113.58 116.008 113.442 116.09 113.381C116.297 113.227 116.507 113.186 116.704 113.202C116.937 113.22 117.258 113.313 117.469 113.725C117.499 113.784 117.538 113.873 117.565 113.997C117.584 114.087 117.596 114.369 117.617 114.485C117.667 114.772 117.71 115.058 117.75 115.347C117.883 116.306 117.959 117.12 118.378 118.001C118.947 119.197 119.517 119.929 120.291 120.253C121.038 120.567 121.932 120.508 123.075 120.262C123.183 120.234 123.291 120.211 123.397 120.191C123.901 120.099 124.382 120.446 124.481 120.974C124.58 121.502 124.26 122.016 123.761 122.132C123.657 122.156 123.554 122.179 123.453 122.2C121.909 122.602 120.122 124.038 119.084 125.294C118.764 125.682 118.295 126.765 117.817 127.456C117.464 127.966 117.068 128.302 116.735 128.421C116.512 128.501 116.324 128.488 116.169 128.448C115.943 128.389 115.756 128.261 115.612 128.056C115.534 127.944 115.461 127.794 115.427 127.603C115.41 127.51 115.408 127.276 115.409 127.17C115.311 126.817 115.192 126.473 115.105 126.117C114.898 125.268 114.491 124.731 114.008 124.021C113.557 123.356 113.072 122.938 112.36 122.605C112.268 122.581 111.521 122.389 111.258 122.279C110.873 122.117 110.689 121.846 110.623 121.7C110.509 121.452 110.498 121.235 110.52 121.055C110.554 120.788 110.667 120.56 110.869 120.376C110.994 120.262 111.18 120.151 111.43 120.097C111.623 120.054 112.135 120.03 112.207 120.026ZM116.586 118.642C116.621 118.724 116.658 118.805 116.697 118.887C117.53 120.639 118.462 121.617 119.595 122.092L119.633 122.107C118.875 122.699 118.189 123.361 117.665 123.996C117.449 124.257 117.163 124.799 116.854 125.356C116.574 124.396 116.115 123.718 115.538 122.869C115.097 122.221 114.635 121.733 114.068 121.336C114.508 121.098 114.928 120.819 115.294 120.494C115.904 119.952 116.306 119.324 116.586 118.642Z" fill="#2E368E"/>
<path d="M130.1 177.676H126.252L120.041 166.875H119.953C119.979 167.324 120.002 167.777 120.021 168.233C120.041 168.688 120.061 169.144 120.08 169.6C120.1 170.049 120.119 170.502 120.139 170.957V177.676H117.434V163.399H121.252L127.453 174.092H127.521C127.508 173.649 127.492 173.21 127.473 172.774C127.453 172.337 127.434 171.901 127.414 171.465C127.401 171.029 127.388 170.593 127.375 170.156V163.399H130.1V177.676ZM143.391 172.198C143.391 173.109 143.267 173.916 143.02 174.619C142.779 175.323 142.424 175.918 141.955 176.406C141.493 176.888 140.933 177.253 140.275 177.5C139.624 177.748 138.889 177.871 138.068 177.871C137.3 177.871 136.594 177.748 135.949 177.5C135.311 177.253 134.755 176.888 134.279 176.406C133.811 175.918 133.446 175.323 133.186 174.619C132.932 173.916 132.805 173.109 132.805 172.198C132.805 170.987 133.02 169.961 133.449 169.121C133.879 168.281 134.491 167.643 135.285 167.207C136.079 166.771 137.027 166.553 138.127 166.553C139.149 166.553 140.054 166.771 140.842 167.207C141.636 167.643 142.258 168.281 142.707 169.121C143.163 169.961 143.391 170.987 143.391 172.198ZM135.842 172.198C135.842 172.914 135.92 173.516 136.076 174.004C136.232 174.492 136.477 174.86 136.809 175.108C137.141 175.355 137.574 175.479 138.107 175.479C138.635 175.479 139.061 175.355 139.387 175.108C139.719 174.86 139.96 174.492 140.109 174.004C140.266 173.516 140.344 172.914 140.344 172.198C140.344 171.475 140.266 170.876 140.109 170.401C139.96 169.919 139.719 169.558 139.387 169.317C139.055 169.076 138.622 168.955 138.088 168.955C137.3 168.955 136.727 169.226 136.369 169.766C136.018 170.306 135.842 171.117 135.842 172.198ZM155.842 163.399C157.684 163.399 159.029 163.796 159.875 164.59C160.721 165.378 161.145 166.465 161.145 167.852C161.145 168.477 161.05 169.076 160.861 169.649C160.673 170.215 160.363 170.72 159.934 171.162C159.51 171.605 158.944 171.957 158.234 172.217C157.525 172.471 156.649 172.598 155.607 172.598H154.309V177.676H151.281V163.399H155.842ZM155.686 165.879H154.309V170.117H155.305C155.871 170.117 156.363 170.043 156.779 169.893C157.196 169.743 157.518 169.509 157.746 169.19C157.974 168.871 158.088 168.461 158.088 167.959C158.088 167.256 157.893 166.735 157.502 166.397C157.111 166.052 156.506 165.879 155.686 165.879ZM169.699 166.553C169.849 166.553 170.021 166.563 170.217 166.582C170.419 166.595 170.581 166.615 170.705 166.641L170.48 169.434C170.383 169.401 170.243 169.378 170.061 169.365C169.885 169.346 169.732 169.336 169.602 169.336C169.217 169.336 168.843 169.385 168.479 169.483C168.12 169.58 167.798 169.74 167.512 169.961C167.225 170.176 166.997 170.462 166.828 170.821C166.665 171.172 166.584 171.605 166.584 172.119V177.676H163.605V166.758H165.861L166.301 168.594H166.447C166.662 168.223 166.929 167.884 167.248 167.578C167.574 167.266 167.941 167.018 168.352 166.836C168.768 166.647 169.217 166.553 169.699 166.553ZM182.609 172.198C182.609 173.109 182.486 173.916 182.238 174.619C181.997 175.323 181.643 175.918 181.174 176.406C180.712 176.888 180.152 177.253 179.494 177.5C178.843 177.748 178.107 177.871 177.287 177.871C176.519 177.871 175.812 177.748 175.168 177.5C174.53 177.253 173.973 176.888 173.498 176.406C173.029 175.918 172.665 175.323 172.404 174.619C172.15 173.916 172.023 173.109 172.023 172.198C172.023 170.987 172.238 169.961 172.668 169.121C173.098 168.281 173.71 167.643 174.504 167.207C175.298 166.771 176.245 166.553 177.346 166.553C178.368 166.553 179.273 166.771 180.061 167.207C180.855 167.643 181.477 168.281 181.926 169.121C182.382 169.961 182.609 170.987 182.609 172.198ZM175.061 172.198C175.061 172.914 175.139 173.516 175.295 174.004C175.451 174.492 175.695 174.86 176.027 175.108C176.359 175.355 176.792 175.479 177.326 175.479C177.854 175.479 178.28 175.355 178.605 175.108C178.938 174.86 179.178 174.492 179.328 174.004C179.484 173.516 179.562 172.914 179.562 172.198C179.562 171.475 179.484 170.876 179.328 170.401C179.178 169.919 178.938 169.558 178.605 169.317C178.273 169.076 177.84 168.955 177.307 168.955C176.519 168.955 175.946 169.226 175.588 169.766C175.236 170.306 175.061 171.117 175.061 172.198ZM184.191 182.481C183.853 182.481 183.501 182.455 183.137 182.403C182.772 182.357 182.469 182.302 182.229 182.237V179.893C182.469 179.958 182.697 180.003 182.912 180.03C183.12 180.062 183.358 180.078 183.625 180.078C184.029 180.078 184.37 179.964 184.65 179.737C184.93 179.515 185.07 179.076 185.07 178.418V166.758H188.049V178.858C188.049 179.522 187.922 180.127 187.668 180.674C187.414 181.227 187.004 181.667 186.438 181.992C185.871 182.318 185.122 182.481 184.191 182.481ZM184.943 163.936C184.943 163.376 185.1 162.995 185.412 162.793C185.731 162.585 186.115 162.481 186.564 162.481C187.007 162.481 187.388 162.585 187.707 162.793C188.026 162.995 188.186 163.376 188.186 163.936C188.186 164.489 188.026 164.873 187.707 165.088C187.388 165.296 187.007 165.401 186.564 165.401C186.115 165.401 185.731 165.296 185.412 165.088C185.1 164.873 184.943 164.489 184.943 163.936ZM195.686 166.553C196.695 166.553 197.564 166.748 198.293 167.139C199.022 167.523 199.585 168.083 199.982 168.819C200.38 169.554 200.578 170.453 200.578 171.514V172.959H193.537C193.57 173.799 193.82 174.46 194.289 174.942C194.764 175.417 195.422 175.655 196.262 175.655C196.958 175.655 197.596 175.583 198.176 175.44C198.755 175.296 199.351 175.082 199.963 174.795V177.1C199.423 177.367 198.856 177.562 198.264 177.686C197.678 177.809 196.965 177.871 196.125 177.871C195.031 177.871 194.061 177.67 193.215 177.266C192.375 176.862 191.714 176.247 191.232 175.42C190.757 174.593 190.52 173.552 190.52 172.295C190.52 171.019 190.734 169.958 191.164 169.112C191.6 168.259 192.206 167.621 192.98 167.198C193.755 166.768 194.657 166.553 195.686 166.553ZM195.705 168.672C195.126 168.672 194.644 168.858 194.26 169.229C193.882 169.6 193.664 170.183 193.605 170.977H197.785C197.779 170.534 197.697 170.14 197.541 169.795C197.391 169.45 197.163 169.177 196.857 168.975C196.558 168.773 196.174 168.672 195.705 168.672ZM207.434 177.871C206.353 177.871 205.432 177.676 204.67 177.285C203.908 176.888 203.329 176.276 202.932 175.449C202.535 174.623 202.336 173.565 202.336 172.276C202.336 170.941 202.561 169.854 203.01 169.014C203.465 168.168 204.094 167.546 204.895 167.149C205.702 166.752 206.636 166.553 207.697 166.553C208.452 166.553 209.104 166.628 209.65 166.778C210.204 166.921 210.686 167.093 211.096 167.295L210.217 169.6C209.748 169.411 209.312 169.258 208.908 169.141C208.505 169.017 208.101 168.955 207.697 168.955C207.176 168.955 206.743 169.079 206.398 169.326C206.053 169.567 205.796 169.932 205.627 170.42C205.458 170.908 205.373 171.52 205.373 172.256C205.373 172.979 205.464 173.578 205.646 174.053C205.829 174.528 206.092 174.883 206.438 175.117C206.783 175.345 207.202 175.459 207.697 175.459C208.316 175.459 208.866 175.378 209.348 175.215C209.829 175.046 210.298 174.811 210.754 174.512V177.061C210.298 177.347 209.82 177.552 209.318 177.676C208.824 177.806 208.195 177.871 207.434 177.871ZM217.893 175.498C218.218 175.498 218.534 175.466 218.84 175.401C219.152 175.336 219.462 175.254 219.768 175.156V177.373C219.449 177.517 219.051 177.634 218.576 177.725C218.107 177.823 217.593 177.871 217.033 177.871C216.382 177.871 215.796 177.767 215.275 177.559C214.761 177.344 214.354 176.976 214.055 176.455C213.762 175.928 213.615 175.196 213.615 174.258V168.994H212.189V167.735L213.83 166.739L214.689 164.434H216.594V166.758H219.65V168.994H216.594V174.258C216.594 174.675 216.711 174.987 216.945 175.196C217.186 175.397 217.502 175.498 217.893 175.498ZM229.602 174.434C229.602 175.176 229.426 175.804 229.074 176.319C228.729 176.826 228.212 177.214 227.521 177.481C226.831 177.741 225.972 177.871 224.943 177.871C224.182 177.871 223.527 177.823 222.98 177.725C222.44 177.627 221.893 177.464 221.34 177.237V174.776C221.932 175.043 222.567 175.264 223.244 175.44C223.928 175.609 224.527 175.694 225.041 175.694C225.62 175.694 226.034 175.609 226.281 175.44C226.535 175.264 226.662 175.036 226.662 174.756C226.662 174.574 226.61 174.411 226.506 174.268C226.408 174.118 226.193 173.952 225.861 173.77C225.529 173.581 225.008 173.337 224.299 173.037C223.615 172.751 223.052 172.461 222.609 172.168C222.173 171.875 221.848 171.53 221.633 171.133C221.424 170.729 221.32 170.218 221.32 169.6C221.32 168.591 221.711 167.832 222.492 167.324C223.28 166.81 224.331 166.553 225.646 166.553C226.324 166.553 226.968 166.621 227.58 166.758C228.199 166.895 228.833 167.113 229.484 167.412L228.586 169.561C228.046 169.326 227.535 169.134 227.053 168.985C226.577 168.835 226.092 168.76 225.598 168.76C225.161 168.76 224.833 168.819 224.611 168.936C224.39 169.053 224.279 169.232 224.279 169.473C224.279 169.649 224.335 169.805 224.445 169.942C224.562 170.078 224.784 170.231 225.109 170.401C225.441 170.563 225.926 170.775 226.564 171.035C227.183 171.289 227.72 171.556 228.176 171.836C228.632 172.11 228.983 172.451 229.23 172.862C229.478 173.265 229.602 173.789 229.602 174.434Z" fill="#242424"/>
<defs>
<filter id="filter0_d_2317_19575" x="100.917" y="11.1191" width="136.111" height="154.746" filterUnits="userSpaceOnUse" color-interpolation-filters="sRGB">
<feFlood flood-opacity="0" result="BackgroundImageFix"/>
<feColorMatrix in="SourceAlpha" type="matrix" values="0 0 0 0 0 0 0 0 0 0 0 0 0 0 0 0 0 0 127 0" result="hardAlpha"/>
<feOffset dy="20"/>
<feGaussianBlur stdDeviation="15"/>
<feComposite in2="hardAlpha" operator="out"/>
<feColorMatrix type="matrix" values="0 0 0 0 0.570833 0 0 0 0 0.570833 0 0 0 0 0.570833 0 0 0 0.19 0"/>
<feBlend mode="normal" in2="BackgroundImageFix" result="effect1_dropShadow_2317_19575"/>
<feBlend mode="normal" in="SourceGraphic" in2="effect1_dropShadow_2317_19575" result="shape"/>
</filter>
<filter id="filter1_d_2317_19575" x="188.699" y="1.64868" width="68.9146" height="50.6836" filterUnits="userSpaceOnUse" color-interpolation-filters="sRGB">
<feFlood flood-opacity="0" result="BackgroundImageFix"/>
<feColorMatrix in="SourceAlpha" type="matrix" values="0 0 0 0 0 0 0 0 0 0 0 0 0 0 0 0 0 0 127 0" result="hardAlpha"/>
<feOffset dx="6" dy="4"/>
<feGaussianBlur stdDeviation="6.5"/>
<feComposite in2="hardAlpha" operator="out"/>
<feColorMatrix type="matrix" values="0 0 0 0 0.104618 0 0 0 0 0.465612 0 0 0 0 0.545833 0 0 0 0.09 0"/>
<feBlend mode="normal" in2="BackgroundImageFix" result="effect1_dropShadow_2317_19575"/>
<feBlend mode="normal" in="SourceGraphic" in2="effect1_dropShadow_2317_19575" result="shape"/>
</filter>
<filter id="filter2_b_2317_19575" x="148.585" y="40.8918" width="82.6152" height="82.0042" filterUnits="userSpaceOnUse" color-interpolation-filters="sRGB">
<feFlood flood-opacity="0" result="BackgroundImageFix"/>
<feGaussianBlur in="BackgroundImageFix" stdDeviation="4"/>
<feComposite in2="SourceAlpha" operator="in" result="effect1_backgroundBlur_2317_19575"/>
<feBlend mode="normal" in="SourceGraphic" in2="effect1_backgroundBlur_2317_19575" result="shape"/>
</filter>
<linearGradient id="paint0_linear_2317_19575" x1="167.632" y1="-23.8806" x2="169.134" y2="233.671" gradientUnits="userSpaceOnUse">
<stop stop-color="#F2F2F2"/>
<stop offset="1" stop-color="#EFEFEF"/>
</linearGradient>
</defs>
</svg>
