<svg width="346" height="109" viewBox="0 0 346 109" fill="none" xmlns="http://www.w3.org/2000/svg">
<path opacity="0.6" d="M173 68C191.778 68 207 52.7777 207 34C207 15.2223 191.778 0 173 0C154.222 0 139 15.2223 139 34C139 52.7777 154.222 68 173 68Z" fill="url(#paint0_linear_2317_19576)"/>
<path fill-rule="evenodd" clip-rule="evenodd" d="M144.77 58.1151C145.056 58.0133 145.357 57.8779 145.589 57.6818C145.864 57.449 145.977 57.1491 146.052 56.8335C146.148 56.428 146.187 55.996 146.304 55.5898C146.348 55.4389 146.431 55.3819 146.467 55.3566C146.557 55.2927 146.649 55.2756 146.735 55.282C146.837 55.2894 146.977 55.328 147.069 55.4991C147.083 55.5236 147.1 55.5609 147.111 55.612C147.119 55.6494 147.125 55.7666 147.134 55.8149C147.156 55.9339 147.175 56.0528 147.192 56.1724C147.25 56.5706 147.283 56.9087 147.467 57.2745C147.715 57.7711 147.964 58.0749 148.302 58.2095C148.629 58.3396 149.019 58.3151 149.518 58.2131C149.566 58.2016 149.613 58.1917 149.659 58.1837C149.879 58.1452 150.09 58.2896 150.133 58.5088C150.176 58.7279 150.036 58.9413 149.818 58.9895C149.773 58.9995 149.728 59.009 149.683 59.0177C149.009 59.1847 148.228 59.7805 147.775 60.3022C147.635 60.463 147.43 60.9128 147.221 61.1997C147.067 61.4113 146.894 61.5508 146.749 61.6001C146.651 61.6333 146.569 61.6282 146.501 61.6114C146.403 61.5871 146.321 61.5337 146.258 61.4488C146.224 61.4023 146.192 61.34 146.177 61.2605C146.17 61.2222 146.169 61.1249 146.169 61.0809C146.127 60.9345 146.074 60.7915 146.036 60.6438C145.946 60.2913 145.768 60.0682 145.557 59.7734C145.36 59.4975 145.148 59.3242 144.837 59.1858C144.797 59.176 144.471 59.0961 144.356 59.0503C144.187 58.9831 144.107 58.8705 144.078 58.8099C144.029 58.707 144.023 58.6171 144.033 58.5422C144.048 58.4316 144.098 58.337 144.186 58.2606C144.24 58.2131 144.322 58.1669 144.431 58.1444C144.515 58.1268 144.739 58.1166 144.77 58.1151ZM146.684 57.5407C146.699 57.5744 146.715 57.6082 146.732 57.6424C147.096 58.3697 147.503 58.7757 147.998 58.9727L148.015 58.9791C147.684 59.2249 147.384 59.4997 147.155 59.7631C147.06 59.8715 146.936 60.0968 146.801 60.3278C146.678 59.9293 146.478 59.6477 146.226 59.2953C146.033 59.0263 145.831 58.8238 145.583 58.6589C145.776 58.5601 145.959 58.4444 146.119 58.3094C146.385 58.0844 146.561 57.8238 146.684 57.5407Z" fill="#2E368E"/>
<circle cx="152.04" cy="4.28127" r="1.60207" fill="#2E368E"/>
<path fill-rule="evenodd" clip-rule="evenodd" d="M175.67 14.6948C178.988 14.6948 181.678 12.005 181.678 8.68698C181.678 5.36897 178.988 2.6792 175.67 2.6792C172.352 2.6792 169.662 5.36897 169.662 8.68698C169.662 12.005 172.352 14.6948 175.67 14.6948ZM175.537 12.0246C177.306 12.0246 178.741 10.5901 178.741 8.82049C178.741 7.05089 177.306 5.61634 175.537 5.61634C173.767 5.61634 172.332 7.05089 172.332 8.82049C172.332 10.5901 173.767 12.0246 175.537 12.0246Z" fill="#2E368E"/>
<path d="M175.55 56.9095C182.046 56.9095 187.312 51.6435 187.312 45.1476C187.312 38.6517 182.046 33.3857 175.55 33.3857C169.054 33.3857 163.788 38.6517 163.788 45.1476C163.788 51.6435 169.054 56.9095 175.55 56.9095Z" fill="#2E368E"/>
<path d="M194.165 36.4026V27.3789C194.165 22.4569 192.21 17.7366 188.73 14.2562C185.249 10.7758 180.529 8.82056 175.607 8.82056C170.685 8.82056 165.964 10.7758 162.484 14.2562C159.004 17.7366 157.048 22.4569 157.048 27.3789V36.4026C157.049 38.4758 156.462 40.5066 155.357 42.2605C154.252 44.0144 152.672 45.4196 150.802 46.3138C150.372 46.5185 150.009 46.8412 149.756 47.2441C149.502 47.6471 149.368 48.1138 149.369 48.5899V48.6388C149.369 48.8108 149.403 48.9811 149.468 49.1401C149.534 49.2991 149.63 49.4435 149.752 49.5653C149.873 49.687 150.017 49.7835 150.176 49.8494C150.335 49.9153 150.505 49.9492 150.677 49.9492H200.534C200.706 49.9492 200.876 49.9153 201.035 49.8494C201.194 49.7835 201.338 49.687 201.46 49.5653C201.581 49.4435 201.677 49.2991 201.743 49.1401C201.809 48.9811 201.842 48.8108 201.842 48.6388V48.5899C201.842 48.1153 201.708 47.6503 201.455 47.2488C201.202 46.8473 200.84 46.5257 200.412 46.3211C198.54 45.4264 196.96 44.02 195.855 42.2647C194.749 40.5094 194.164 38.477 194.165 36.4026Z" fill="#BEC1DC"/>
<path fill-rule="evenodd" clip-rule="evenodd" d="M201.971 49.9405H149.369V48.3384H201.971V49.9405Z" fill="#2E368E"/>
<path d="M190.489 25.9092C194.618 25.9092 197.966 22.562 197.966 18.4329C197.966 14.3038 194.618 10.9565 190.489 10.9565C186.36 10.9565 183.013 14.3038 183.013 18.4329C183.013 22.562 186.36 25.9092 190.489 25.9092Z" fill="white"/>
<path d="M188.62 18.4301C188.62 17.7669 188.772 17.2456 189.075 16.8661C189.382 16.4866 189.854 16.2969 190.489 16.2969C191.121 16.2969 191.59 16.4885 191.897 16.8719C192.205 17.2514 192.358 17.7708 192.358 18.4301C192.358 19.0933 192.205 19.6165 191.897 19.9998C191.59 20.3793 191.121 20.5691 190.489 20.5691C189.854 20.5691 189.382 20.3793 189.075 19.9998C188.772 19.6165 188.62 19.0933 188.62 18.4301ZM190.994 18.4301C190.994 18.1234 190.961 17.8934 190.894 17.7401C190.828 17.5829 190.693 17.5044 190.489 17.5044C190.282 17.5044 190.145 17.5829 190.078 17.7401C190.012 17.8934 189.978 18.1234 189.978 18.4301C189.978 18.7406 190.012 18.9744 190.078 19.1316C190.145 19.2849 190.282 19.3616 190.489 19.3616C190.693 19.3616 190.828 19.2849 190.894 19.1316C190.961 18.9744 190.994 18.7406 190.994 18.4301Z" fill="#F52020"/>
<path fill-rule="evenodd" clip-rule="evenodd" d="M161.147 54.0264C159.868 55.1834 158.592 56.3166 157.347 57.5102C157.079 57.766 157.068 58.1878 157.323 58.4535C157.578 58.7218 158.002 58.7303 158.268 58.4753C159.507 57.2893 160.771 56.1653 162.042 55.0167C162.316 54.7677 162.337 54.3451 162.092 54.0735C161.844 53.8002 161.421 53.7774 161.147 54.0264Z" fill="#2E368E"/>
<path fill-rule="evenodd" clip-rule="evenodd" d="M190.042 54.0269C191.314 55.184 192.582 56.3175 193.82 57.5112C194.087 57.7671 194.095 58.1885 193.84 58.4538C193.583 58.7216 193.16 58.7296 192.895 58.4746C191.664 57.2884 190.406 56.1641 189.143 55.0154C188.871 54.7663 188.852 54.3441 189.098 54.0729C189.347 53.8001 189.77 53.7778 190.042 54.0269Z" fill="#2E368E"/>
<path fill-rule="evenodd" clip-rule="evenodd" d="M174.776 61.501C174.756 63.222 174.721 64.9243 174.751 66.6449C174.756 67.0151 175.058 67.3077 175.425 67.3008C175.795 67.2951 176.089 66.9895 176.083 66.6217C176.055 64.9107 176.089 63.2227 176.11 61.5137C176.113 61.1444 175.818 60.8431 175.452 60.8392C175.083 60.8365 174.78 61.1317 174.776 61.501Z" fill="#2E368E"/>
<path d="M90.3203 104.121H88.0156L82.4219 95.0037H82.3516C82.3724 95.311 82.3906 95.6365 82.4062 95.9802C82.4271 96.324 82.4427 96.6781 82.4531 97.0427C82.4688 97.4073 82.4818 97.7771 82.4922 98.1521V104.121H80.7891V92.699H83.0781L88.6641 101.754H88.7188C88.7083 101.488 88.6953 101.183 88.6797 100.84C88.6641 100.496 88.6484 100.142 88.6328 99.7771C88.6224 99.4073 88.6146 99.0505 88.6094 98.7068V92.699H90.3203V104.121ZM100.789 99.7771C100.789 100.496 100.695 101.134 100.508 101.691C100.32 102.248 100.047 102.72 99.6875 103.105C99.3281 103.485 98.8958 103.777 98.3906 103.98C97.8854 104.178 97.3151 104.277 96.6797 104.277C96.0859 104.277 95.5417 104.178 95.0469 103.98C94.5521 103.777 94.1224 103.485 93.7578 103.105C93.3984 102.72 93.1198 102.248 92.9219 101.691C92.724 101.134 92.625 100.496 92.625 99.7771C92.625 98.824 92.7891 98.0167 93.1172 97.3552C93.4505 96.6886 93.9245 96.1807 94.5391 95.8318C95.1536 95.4828 95.8854 95.3083 96.7344 95.3083C97.5312 95.3083 98.2344 95.4828 98.8438 95.8318C99.4531 96.1807 99.9297 96.6886 100.273 97.3552C100.617 98.0219 100.789 98.8292 100.789 99.7771ZM94.5156 99.7771C94.5156 100.407 94.5911 100.946 94.7422 101.394C94.8984 101.842 95.138 102.186 95.4609 102.426C95.7839 102.66 96.2005 102.777 96.7109 102.777C97.2214 102.777 97.638 102.66 97.9609 102.426C98.2839 102.186 98.5208 101.842 98.6719 101.394C98.8229 100.946 98.8984 100.407 98.8984 99.7771C98.8984 99.1469 98.8229 98.613 98.6719 98.1755C98.5208 97.7328 98.2839 97.3969 97.9609 97.1677C97.638 96.9333 97.2188 96.8162 96.7031 96.8162C95.9427 96.8162 95.388 97.0714 95.0391 97.5818C94.6901 98.0922 94.5156 98.824 94.5156 99.7771ZM116.773 104.121H114.469L108.875 95.0037H108.805C108.826 95.311 108.844 95.6365 108.859 95.9802C108.88 96.324 108.896 96.6781 108.906 97.0427C108.922 97.4073 108.935 97.7771 108.945 98.1521V104.121H107.242V92.699H109.531L115.117 101.754H115.172C115.161 101.488 115.148 101.183 115.133 100.84C115.117 100.496 115.102 100.142 115.086 99.7771C115.076 99.4073 115.068 99.0505 115.062 98.7068V92.699H116.773V104.121ZM127.242 99.7771C127.242 100.496 127.148 101.134 126.961 101.691C126.773 102.248 126.5 102.72 126.141 103.105C125.781 103.485 125.349 103.777 124.844 103.98C124.339 104.178 123.768 104.277 123.133 104.277C122.539 104.277 121.995 104.178 121.5 103.98C121.005 103.777 120.576 103.485 120.211 103.105C119.852 102.72 119.573 102.248 119.375 101.691C119.177 101.134 119.078 100.496 119.078 99.7771C119.078 98.824 119.242 98.0167 119.57 97.3552C119.904 96.6886 120.378 96.1807 120.992 95.8318C121.607 95.4828 122.339 95.3083 123.188 95.3083C123.984 95.3083 124.688 95.4828 125.297 95.8318C125.906 96.1807 126.383 96.6886 126.727 97.3552C127.07 98.0219 127.242 98.8292 127.242 99.7771ZM120.969 99.7771C120.969 100.407 121.044 100.946 121.195 101.394C121.352 101.842 121.591 102.186 121.914 102.426C122.237 102.66 122.654 102.777 123.164 102.777C123.674 102.777 124.091 102.66 124.414 102.426C124.737 102.186 124.974 101.842 125.125 101.394C125.276 100.946 125.352 100.407 125.352 99.7771C125.352 99.1469 125.276 98.613 125.125 98.1755C124.974 97.7328 124.737 97.3969 124.414 97.1677C124.091 96.9333 123.672 96.8162 123.156 96.8162C122.396 96.8162 121.841 97.0714 121.492 97.5818C121.143 98.0922 120.969 98.824 120.969 99.7771ZM132.57 102.793C132.81 102.793 133.047 102.772 133.281 102.73C133.516 102.683 133.729 102.629 133.922 102.566V103.957C133.719 104.045 133.456 104.121 133.133 104.183C132.81 104.246 132.474 104.277 132.125 104.277C131.635 104.277 131.195 104.196 130.805 104.035C130.414 103.868 130.104 103.584 129.875 103.183C129.646 102.782 129.531 102.228 129.531 101.519V96.8708H128.352V96.0505L129.617 95.4021L130.219 93.5505H131.375V95.4724H133.852V96.8708H131.375V101.496C131.375 101.933 131.484 102.259 131.703 102.472C131.922 102.686 132.211 102.793 132.57 102.793ZM137.516 95.4724V104.121H135.68V95.4724H137.516ZM136.609 92.1599C136.891 92.1599 137.133 92.2354 137.336 92.3865C137.544 92.5375 137.648 92.7979 137.648 93.1677C137.648 93.5323 137.544 93.7927 137.336 93.949C137.133 94.1 136.891 94.1755 136.609 94.1755C136.318 94.1755 136.07 94.1 135.867 93.949C135.669 93.7927 135.57 93.5323 135.57 93.1677C135.57 92.7979 135.669 92.5375 135.867 92.3865C136.07 92.2354 136.318 92.1599 136.609 92.1599ZM144.469 96.8708H142.367V104.121H140.531V96.8708H139.117V95.988L140.531 95.449V94.8474C140.531 94.113 140.646 93.5297 140.875 93.0974C141.109 92.6651 141.443 92.3552 141.875 92.1677C142.312 91.975 142.833 91.8787 143.438 91.8787C143.833 91.8787 144.195 91.9125 144.523 91.9802C144.852 92.0427 145.128 92.1156 145.352 92.199L144.875 93.5896C144.698 93.5323 144.5 93.4802 144.281 93.4333C144.062 93.3813 143.828 93.3552 143.578 93.3552C143.161 93.3552 142.854 93.4854 142.656 93.7458C142.464 94.0063 142.367 94.3865 142.367 94.8865V95.4724H144.469V96.8708ZM147.773 95.4724V104.121H145.938V95.4724H147.773ZM146.867 92.1599C147.148 92.1599 147.391 92.2354 147.594 92.3865C147.802 92.5375 147.906 92.7979 147.906 93.1677C147.906 93.5323 147.802 93.7927 147.594 93.949C147.391 94.1 147.148 94.1755 146.867 94.1755C146.576 94.1755 146.328 94.1 146.125 93.949C145.927 93.7927 145.828 93.5323 145.828 93.1677C145.828 92.7979 145.927 92.5375 146.125 92.3865C146.328 92.2354 146.576 92.1599 146.867 92.1599ZM153.883 104.277C153.065 104.277 152.357 104.118 151.758 103.801C151.159 103.483 150.698 102.996 150.375 102.34C150.052 101.683 149.891 100.85 149.891 99.8396C149.891 98.7875 150.068 97.9281 150.422 97.2615C150.776 96.5948 151.266 96.1026 151.891 95.7849C152.521 95.4672 153.242 95.3083 154.055 95.3083C154.57 95.3083 155.036 95.3604 155.453 95.4646C155.875 95.5636 156.232 95.686 156.523 95.8318L155.977 97.3005C155.659 97.1703 155.333 97.061 155 96.9724C154.667 96.8839 154.346 96.8396 154.039 96.8396C153.534 96.8396 153.112 96.9516 152.773 97.1755C152.44 97.3995 152.19 97.7328 152.023 98.1755C151.862 98.6182 151.781 99.1677 151.781 99.824C151.781 100.459 151.865 100.996 152.031 101.433C152.198 101.866 152.445 102.194 152.773 102.418C153.102 102.636 153.505 102.746 153.984 102.746C154.458 102.746 154.883 102.689 155.258 102.574C155.633 102.459 155.987 102.311 156.32 102.129V103.722C155.992 103.91 155.641 104.048 155.266 104.136C154.891 104.23 154.43 104.277 153.883 104.277ZM161.742 95.3083C162.836 95.3083 163.661 95.5505 164.219 96.0349C164.781 96.5193 165.062 97.2745 165.062 98.3005V104.121H163.758L163.406 102.894H163.344C163.099 103.207 162.846 103.465 162.586 103.668C162.326 103.871 162.023 104.022 161.68 104.121C161.341 104.225 160.927 104.277 160.438 104.277C159.922 104.277 159.461 104.183 159.055 103.996C158.648 103.803 158.328 103.511 158.094 103.121C157.859 102.73 157.742 102.235 157.742 101.636C157.742 100.746 158.073 100.077 158.734 99.6287C159.401 99.1807 160.406 98.9333 161.75 98.8865L163.25 98.8318V98.3787C163.25 97.7797 163.109 97.3526 162.828 97.0974C162.552 96.8422 162.161 96.7146 161.656 96.7146C161.224 96.7146 160.805 96.7771 160.398 96.9021C159.992 97.0271 159.596 97.1807 159.211 97.363L158.617 96.0662C159.039 95.8422 159.518 95.6599 160.055 95.5193C160.596 95.3787 161.159 95.3083 161.742 95.3083ZM163.242 99.988L162.125 100.027C161.208 100.058 160.565 100.215 160.195 100.496C159.826 100.777 159.641 101.163 159.641 101.652C159.641 102.079 159.768 102.392 160.023 102.59C160.279 102.782 160.615 102.879 161.031 102.879C161.667 102.879 162.193 102.699 162.609 102.34C163.031 101.975 163.242 101.441 163.242 100.738V99.988ZM170.852 102.793C171.091 102.793 171.328 102.772 171.562 102.73C171.797 102.683 172.01 102.629 172.203 102.566V103.957C172 104.045 171.737 104.121 171.414 104.183C171.091 104.246 170.755 104.277 170.406 104.277C169.917 104.277 169.477 104.196 169.086 104.035C168.695 103.868 168.385 103.584 168.156 103.183C167.927 102.782 167.812 102.228 167.812 101.519V96.8708H166.633V96.0505L167.898 95.4021L168.5 93.5505H169.656V95.4724H172.133V96.8708H169.656V101.496C169.656 101.933 169.766 102.259 169.984 102.472C170.203 102.686 170.492 102.793 170.852 102.793ZM175.797 95.4724V104.121H173.961V95.4724H175.797ZM174.891 92.1599C175.172 92.1599 175.414 92.2354 175.617 92.3865C175.826 92.5375 175.93 92.7979 175.93 93.1677C175.93 93.5323 175.826 93.7927 175.617 93.949C175.414 94.1 175.172 94.1755 174.891 94.1755C174.599 94.1755 174.352 94.1 174.148 93.949C173.951 93.7927 173.852 93.5323 173.852 93.1677C173.852 92.7979 173.951 92.5375 174.148 92.3865C174.352 92.2354 174.599 92.1599 174.891 92.1599ZM186.086 99.7771C186.086 100.496 185.992 101.134 185.805 101.691C185.617 102.248 185.344 102.72 184.984 103.105C184.625 103.485 184.193 103.777 183.688 103.98C183.182 104.178 182.612 104.277 181.977 104.277C181.383 104.277 180.839 104.178 180.344 103.98C179.849 103.777 179.419 103.485 179.055 103.105C178.695 102.72 178.417 102.248 178.219 101.691C178.021 101.134 177.922 100.496 177.922 99.7771C177.922 98.824 178.086 98.0167 178.414 97.3552C178.747 96.6886 179.221 96.1807 179.836 95.8318C180.451 95.4828 181.182 95.3083 182.031 95.3083C182.828 95.3083 183.531 95.4828 184.141 95.8318C184.75 96.1807 185.227 96.6886 185.57 97.3552C185.914 98.0219 186.086 98.8292 186.086 99.7771ZM179.812 99.7771C179.812 100.407 179.888 100.946 180.039 101.394C180.195 101.842 180.435 102.186 180.758 102.426C181.081 102.66 181.497 102.777 182.008 102.777C182.518 102.777 182.935 102.66 183.258 102.426C183.581 102.186 183.818 101.842 183.969 101.394C184.12 100.946 184.195 100.407 184.195 99.7771C184.195 99.1469 184.12 98.613 183.969 98.1755C183.818 97.7328 183.581 97.3969 183.258 97.1677C182.935 96.9333 182.516 96.8162 182 96.8162C181.24 96.8162 180.685 97.0714 180.336 97.5818C179.987 98.0922 179.812 98.824 179.812 99.7771ZM192.703 95.3083C193.677 95.3083 194.435 95.561 194.977 96.0662C195.523 96.5662 195.797 97.3708 195.797 98.4802V104.121H193.961V98.824C193.961 98.1521 193.823 97.6495 193.547 97.3162C193.271 96.9776 192.844 96.8083 192.266 96.8083C191.427 96.8083 190.844 97.0662 190.516 97.5818C190.193 98.0974 190.031 98.8448 190.031 99.824V104.121H188.195V95.4724H189.625L189.883 96.6443H189.984C190.172 96.3422 190.404 96.0948 190.68 95.9021C190.961 95.7042 191.273 95.5557 191.617 95.4568C191.966 95.3578 192.328 95.3083 192.703 95.3083ZM206.906 95.3083C207.052 95.3083 207.211 95.3162 207.383 95.3318C207.555 95.3474 207.703 95.3682 207.828 95.3943L207.656 97.113C207.547 97.0818 207.411 97.0583 207.25 97.0427C207.094 97.0271 206.953 97.0193 206.828 97.0193C206.5 97.0193 206.188 97.074 205.891 97.1833C205.594 97.2875 205.331 97.449 205.102 97.6677C204.872 97.8813 204.693 98.1495 204.562 98.4724C204.432 98.7953 204.367 99.1703 204.367 99.5974V104.121H202.523V95.4724H203.961L204.211 96.9958H204.297C204.469 96.6886 204.682 96.4073 204.938 96.1521C205.193 95.8969 205.484 95.6938 205.812 95.5427C206.146 95.3865 206.51 95.3083 206.906 95.3083ZM212.875 95.3083C213.646 95.3083 214.307 95.4672 214.859 95.7849C215.411 96.1026 215.836 96.5531 216.133 97.1365C216.43 97.7198 216.578 98.4177 216.578 99.2302V100.215H210.805C210.826 101.053 211.049 101.699 211.477 102.152C211.909 102.605 212.513 102.832 213.289 102.832C213.841 102.832 214.336 102.78 214.773 102.676C215.216 102.566 215.672 102.407 216.141 102.199V103.691C215.708 103.894 215.268 104.043 214.82 104.136C214.372 104.23 213.836 104.277 213.211 104.277C212.362 104.277 211.615 104.113 210.969 103.785C210.328 103.452 209.826 102.957 209.461 102.301C209.102 101.644 208.922 100.829 208.922 99.8552C208.922 98.8865 209.086 98.0636 209.414 97.3865C209.742 96.7094 210.203 96.1938 210.797 95.8396C211.391 95.4854 212.083 95.3083 212.875 95.3083ZM212.875 96.6912C212.297 96.6912 211.828 96.8787 211.469 97.2537C211.115 97.6287 210.906 98.1781 210.844 98.9021H214.781C214.776 98.4698 214.703 98.087 214.562 97.7537C214.427 97.4203 214.219 97.1599 213.938 96.9724C213.661 96.7849 213.307 96.6912 212.875 96.6912ZM222.133 104.277C221.315 104.277 220.607 104.118 220.008 103.801C219.409 103.483 218.948 102.996 218.625 102.34C218.302 101.683 218.141 100.85 218.141 99.8396C218.141 98.7875 218.318 97.9281 218.672 97.2615C219.026 96.5948 219.516 96.1026 220.141 95.7849C220.771 95.4672 221.492 95.3083 222.305 95.3083C222.82 95.3083 223.286 95.3604 223.703 95.4646C224.125 95.5636 224.482 95.686 224.773 95.8318L224.227 97.3005C223.909 97.1703 223.583 97.061 223.25 96.9724C222.917 96.8839 222.596 96.8396 222.289 96.8396C221.784 96.8396 221.362 96.9516 221.023 97.1755C220.69 97.3995 220.44 97.7328 220.273 98.1755C220.112 98.6182 220.031 99.1677 220.031 99.824C220.031 100.459 220.115 100.996 220.281 101.433C220.448 101.866 220.695 102.194 221.023 102.418C221.352 102.636 221.755 102.746 222.234 102.746C222.708 102.746 223.133 102.689 223.508 102.574C223.883 102.459 224.237 102.311 224.57 102.129V103.722C224.242 103.91 223.891 104.048 223.516 104.136C223.141 104.23 222.68 104.277 222.133 104.277ZM230.047 95.3083C230.818 95.3083 231.479 95.4672 232.031 95.7849C232.583 96.1026 233.008 96.5531 233.305 97.1365C233.602 97.7198 233.75 98.4177 233.75 99.2302V100.215H227.977C227.997 101.053 228.221 101.699 228.648 102.152C229.081 102.605 229.685 102.832 230.461 102.832C231.013 102.832 231.508 102.78 231.945 102.676C232.388 102.566 232.844 102.407 233.312 102.199V103.691C232.88 103.894 232.44 104.043 231.992 104.136C231.544 104.23 231.008 104.277 230.383 104.277C229.534 104.277 228.786 104.113 228.141 103.785C227.5 103.452 226.997 102.957 226.633 102.301C226.273 101.644 226.094 100.829 226.094 99.8552C226.094 98.8865 226.258 98.0636 226.586 97.3865C226.914 96.7094 227.375 96.1938 227.969 95.8396C228.562 95.4854 229.255 95.3083 230.047 95.3083ZM230.047 96.6912C229.469 96.6912 229 96.8787 228.641 97.2537C228.286 97.6287 228.078 98.1781 228.016 98.9021H231.953C231.948 98.4698 231.875 98.087 231.734 97.7537C231.599 97.4203 231.391 97.1599 231.109 96.9724C230.833 96.7849 230.479 96.6912 230.047 96.6912ZM237.656 95.4724V104.121H235.82V95.4724H237.656ZM236.75 92.1599C237.031 92.1599 237.273 92.2354 237.477 92.3865C237.685 92.5375 237.789 92.7979 237.789 93.1677C237.789 93.5323 237.685 93.7927 237.477 93.949C237.273 94.1 237.031 94.1755 236.75 94.1755C236.458 94.1755 236.211 94.1 236.008 93.949C235.81 93.7927 235.711 93.5323 235.711 93.1677C235.711 92.7979 235.81 92.5375 236.008 92.3865C236.211 92.2354 236.458 92.1599 236.75 92.1599ZM242.266 104.121L238.977 95.4724H240.922L242.703 100.551C242.818 100.873 242.922 101.222 243.016 101.597C243.109 101.972 243.174 102.288 243.211 102.543H243.273C243.31 102.277 243.38 101.959 243.484 101.59C243.589 101.215 243.695 100.868 243.805 100.551L245.586 95.4724H247.523L244.234 104.121H242.266ZM252.281 95.3083C253.052 95.3083 253.714 95.4672 254.266 95.7849C254.818 96.1026 255.242 96.5531 255.539 97.1365C255.836 97.7198 255.984 98.4177 255.984 99.2302V100.215H250.211C250.232 101.053 250.456 101.699 250.883 102.152C251.315 102.605 251.919 102.832 252.695 102.832C253.247 102.832 253.742 102.78 254.18 102.676C254.622 102.566 255.078 102.407 255.547 102.199V103.691C255.115 103.894 254.674 104.043 254.227 104.136C253.779 104.23 253.242 104.277 252.617 104.277C251.768 104.277 251.021 104.113 250.375 103.785C249.734 103.452 249.232 102.957 248.867 102.301C248.508 101.644 248.328 100.829 248.328 99.8552C248.328 98.8865 248.492 98.0636 248.82 97.3865C249.148 96.7094 249.609 96.1938 250.203 95.8396C250.797 95.4854 251.49 95.3083 252.281 95.3083ZM252.281 96.6912C251.703 96.6912 251.234 96.8787 250.875 97.2537C250.521 97.6287 250.312 98.1781 250.25 98.9021H254.188C254.182 98.4698 254.109 98.087 253.969 97.7537C253.833 97.4203 253.625 97.1599 253.344 96.9724C253.068 96.7849 252.714 96.6912 252.281 96.6912ZM260.961 104.277C259.93 104.277 259.102 103.902 258.477 103.152C257.857 102.397 257.547 101.285 257.547 99.8162C257.547 98.3318 257.862 97.2094 258.492 96.449C259.128 95.6886 259.964 95.3083 261 95.3083C261.438 95.3083 261.82 95.3682 262.148 95.488C262.477 95.6026 262.758 95.7589 262.992 95.9568C263.232 96.1547 263.435 96.3761 263.602 96.6208H263.688C263.661 96.4594 263.63 96.2276 263.594 95.9255C263.562 95.6182 263.547 95.3344 263.547 95.074V91.9646H265.391V104.121H263.953L263.625 102.941H263.547C263.391 103.191 263.193 103.418 262.953 103.621C262.719 103.819 262.438 103.978 262.109 104.097C261.786 104.217 261.404 104.277 260.961 104.277ZM261.477 102.785C262.263 102.785 262.818 102.558 263.141 102.105C263.464 101.652 263.63 100.972 263.641 100.066V99.824C263.641 98.8552 263.484 98.113 263.172 97.5974C262.859 97.0766 262.289 96.8162 261.461 96.8162C260.799 96.8162 260.294 97.0844 259.945 97.6208C259.602 98.1521 259.43 98.8943 259.43 99.8474C259.43 100.801 259.602 101.53 259.945 102.035C260.294 102.535 260.805 102.785 261.477 102.785Z" fill="#303030"/>
<defs>
<linearGradient id="paint0_linear_2317_19576" x1="172.738" y1="-11.0712" x2="173.434" y2="108.332" gradientUnits="userSpaceOnUse">
<stop stop-color="#F2F2F2"/>
<stop offset="1" stop-color="#EFEFEF"/>
</linearGradient>
</defs>
</svg>
