<svg width="20" height="20" viewBox="0 0 20 20" fill="none" xmlns="http://www.w3.org/2000/svg">
<path d="M11 5.5C11 2.46243 8.53757 0 5.5 0C2.46243 0 0 2.46243 0 5.5C0 8.53757 2.46243 11 5.5 11C8.53757 11 11 8.53757 11 5.5ZM6.00065 6.00001L6.00111 8.50352C6.00111 8.77966 5.77725 9.00352 5.50111 9.00352C5.22497 9.00352 5.00111 8.77966 5.00111 8.50352L5.00065 6.00001H2.49609C2.21995 6.00001 1.99609 5.77615 1.99609 5.50001C1.99609 5.22387 2.21995 5.00001 2.49609 5.00001H5.00046L5 2.49927C5 2.22313 5.22386 1.99927 5.5 1.99927C5.77614 1.99927 6 2.22313 6 2.49927L6.00046 5.00001H8.50301C8.77915 5.00001 9.00301 5.22387 9.00301 5.50001C9.00301 5.77615 8.77915 6.00001 8.50301 6.00001H6.00065ZM16.75 3.5H11.6865C11.5142 2.96653 11.2747 2.46321 10.9782 2H16.75C18.5449 2 20 3.45507 20 5.25V12.1287C20 12.7254 19.7629 13.2977 19.341 13.7197L13.7197 19.341C13.2977 19.7629 12.7254 20 12.1287 20H5.25C3.45507 20 2 18.5449 2 16.75V10.9782C2.46321 11.2747 2.96653 11.5142 3.5 11.6865V16.75C3.5 17.7165 4.2835 18.5 5.25 18.5H12V15.25C12 13.517 13.3565 12.1008 15.0656 12.0051L15.25 12H18.5V5.25C18.5 4.2835 17.7165 3.5 16.75 3.5ZM17.439 13.5H15.25C14.3318 13.5 13.5788 14.2071 13.5058 15.1065L13.5 15.25V17.439L17.439 13.5Z" fill="white"/>
</svg>
