<svg width="15" height="15" viewBox="0 0 15 15" fill="none" xmlns="http://www.w3.org/2000/svg">
<rect width="15" height="15" fill="white"/>
<path d="M6.01277 4.09249C6.13609 4.21582 6.13609 4.41576 6.01277 4.53909L5.07817 5.47368H8.73684C10.539 5.47368 12 6.93465 12 8.73684C12 10.539 10.539 12 8.73684 12C6.93465 12 5.47368 10.539 5.47368 8.73684C5.47368 8.56244 5.61507 8.42105 5.78947 8.42105C5.96388 8.42105 6.10526 8.56244 6.10526 8.73684C6.10526 10.1902 7.28346 11.3684 8.73684 11.3684C10.1902 11.3684 11.3684 10.1902 11.3684 8.73684C11.3684 7.28346 10.1902 6.10526 8.73684 6.10526H5.07817L6.01277 7.03986C6.13609 7.16318 6.13609 7.36313 6.01277 7.48645C5.88945 7.60978 5.6895 7.60978 5.56618 7.48645L4.09249 6.01277C3.96917 5.88945 3.96917 5.6895 4.09249 5.56618L5.56618 4.09249C5.6895 3.96917 5.88945 3.96917 6.01277 4.09249Z" fill="#242424"/>
</svg>
