<svg width="15" height="15" viewBox="0 0 15 15" fill="none" xmlns="http://www.w3.org/2000/svg">
<rect width="15" height="15" fill="white"/>
<path d="M7.41794 4.63936C7.78723 4.47989 8.21268 4.47989 8.58198 4.63936L11.1719 5.75769C11.2703 5.80016 11.3333 5.89228 11.3333 5.99365V6.9605H11.8888V5.99365C11.8888 5.68955 11.6998 5.4132 11.4047 5.28577L8.81479 4.16744C8.29777 3.94419 7.70214 3.94419 7.18513 4.16744L4.59522 5.28577C4.30009 5.4132 4.1111 5.68955 4.1111 5.99365V6.9605H4.66665L4.66665 5.99365C4.66665 5.89228 4.72965 5.80016 4.82802 5.75769L7.41794 4.63936ZM4.33261 8.51978C4.43375 8.59768 4.54504 8.67364 4.66665 8.74712C4.6951 8.76431 4.72412 8.78137 4.7537 8.79828C5.55781 9.25802 6.704 9.55931 7.99951 9.55931C9.29503 9.55931 10.4412 9.25802 11.2453 8.79828C11.2752 8.78119 11.3045 8.76396 11.3333 8.74658C11.4545 8.67327 11.5655 8.59749 11.6664 8.51978C11.747 8.45774 11.8211 8.39447 11.8888 8.33022C12.0025 8.22246 12.0982 8.11197 12.1765 8.00002H11.3333C11.3334 8.00002 11.3333 8.00002 11.3333 8.00002C11.18 7.99998 11.0556 7.88364 11.0556 7.74014C11.0556 7.59661 11.1799 7.48026 11.3333 7.48026H12.7222C12.7959 7.48026 12.8665 7.50764 12.9186 7.55638C12.9707 7.60511 13 7.67121 13 7.74014V9.03953C13 9.18306 12.8756 9.29941 12.7222 9.29941C12.5688 9.29941 12.4444 9.18306 12.4444 9.03953V8.53073C12.288 8.7039 12.1014 8.86674 11.8888 9.01702C11.7778 9.09547 11.6597 9.1705 11.535 9.24178C11.4695 9.27921 11.4023 9.31561 11.3333 9.35093C10.4486 9.80373 9.28031 10.0791 7.99951 10.0791C6.71915 10.0791 5.55119 9.80391 4.66665 9.35139C4.59734 9.31593 4.52976 9.27937 4.46401 9.24178C4.33967 9.17069 4.22185 9.09587 4.1111 9.01765C3.89854 8.86751 3.71205 8.70481 3.55555 8.53181V9.03953C3.55555 9.18306 3.43119 9.29941 3.27778 9.29941C3.12436 9.29941 3 9.18306 3 9.03953V7.74014C3 7.67121 3.02927 7.60511 3.08136 7.55638C3.13345 7.50764 3.2041 7.48026 3.27778 7.48026H4.66665C4.82006 7.48026 4.94443 7.59661 4.94443 7.74014C4.94443 7.88367 4.82006 8.00002 4.66665 8.00002H3.82251C3.901 8.11227 3.99707 8.22304 4.1111 8.33107C4.17861 8.39502 4.25242 8.45801 4.33261 8.51978ZM4.66665 9.93563V10.0064C4.66665 10.1077 4.72965 10.1998 4.82802 10.2423L7.41794 11.3606C7.78723 11.5201 8.21268 11.5201 8.58198 11.3606L11.1719 10.2423C11.2703 10.1998 11.3333 10.1077 11.3333 10.0064V9.93523C11.5283 9.84741 11.714 9.75163 11.8888 9.64836V10.0064C11.8888 10.3105 11.6998 10.5868 11.4047 10.7142L8.81479 11.8326C8.29777 12.0558 7.70214 12.0558 7.18513 11.8326L4.59522 10.7142C4.30009 10.5868 4.1111 10.3105 4.1111 10.0064V9.64889C4.28597 9.75211 4.47162 9.84785 4.66665 9.93563ZM5.80015 6.33838C5.86058 6.20645 6.02388 6.14534 6.16489 6.20188L7.99989 6.93764L9.8349 6.20188C9.97591 6.14534 10.1392 6.20645 10.1996 6.33838C10.2601 6.4703 10.1948 6.62308 10.0537 6.67961L8.27767 7.39175V8.51978C8.27767 8.66331 8.15331 8.77966 7.99989 8.77966C7.84648 8.77966 7.72212 8.66331 7.72212 8.51978V7.39175L5.94604 6.67961C5.80504 6.62308 5.73972 6.4703 5.80015 6.33838Z" fill="#242424"/>
</svg>
