<svg width="24" height="24" viewBox="0 0 24 24" fill="none" xmlns="http://www.w3.org/2000/svg">
<path d="M14.5644 7.99388C14.2917 8.30561 13.8178 8.33719 13.5061 8.06443L12.75 7.40284L12.75 10.2646C12.75 10.6788 12.4142 11.0146 12 11.0146C11.5858 11.0146 11.25 10.6788 11.25 10.2646L11.25 7.40281L10.4939 8.06443C10.1821 8.33719 9.70831 8.3056 9.43555 7.99388C9.16279 7.68215 9.19439 7.20832 9.50611 6.93556L11.5061 5.18556C11.7889 4.93814 12.2111 4.93814 12.4939 5.18557L14.4939 6.93557C14.8056 7.20833 14.8372 7.68216 14.5644 7.99388ZM13.5061 15.9502C13.8178 15.6775 14.2917 15.709 14.5644 16.0208C14.8372 16.3325 14.8056 16.8063 14.4939 17.0791L12.4939 18.8291C12.2111 19.0765 11.7889 19.0765 11.5061 18.8291L9.50611 17.0791C9.19438 16.8063 9.16279 16.3325 9.43555 16.0208C9.70831 15.709 10.1821 15.6775 10.4939 15.9502L11.25 16.6118L11.25 13.7501C11.25 13.3359 11.5858 13.0001 12 13.0001C12.4142 13.0001 12.75 13.3359 12.75 13.7501L12.75 16.6118L13.5061 15.9502ZM17.75 2C18.9926 2 20 3.00736 20 4.25L20 19.75C20 20.9926 18.9926 22 17.75 22L6.25 22C5.00736 22 4 20.9926 4 19.75L4 4.25C4 3.00736 5.00736 2 6.25 2L17.75 2ZM18.5 4.25C18.5 3.83579 18.1642 3.5 17.75 3.5L6.25 3.5C5.83579 3.5 5.5 3.83579 5.5 4.25L5.5 19.75C5.5 20.1642 5.83579 20.5 6.25 20.5L17.75 20.5C18.1642 20.5 18.5 20.1642 18.5 19.75L18.5 4.25Z" fill="#242424"/>
</svg>
