<svg width="50" height="50" viewBox="0 0 50 50" fill="none" xmlns="http://www.w3.org/2000/svg">
<path d="M42.543 19.209L38.268 16.741C37.705 16.416 37 16.823 37 17.474V19H29V10.41L23.59 5H5V23.117L10.395 29H19V37H17.474C16.823 37 16.416 37.705 16.741 38.269L19.209 42.544C19.56 43.153 20.439 43.153 20.79 42.544L23.258 38.269C23.584 37.705 23.177 37 22.526 37H21V29H29V21H37V22.526C37 23.177 37.705 23.584 38.269 23.259L42.544 20.791C43.152 20.439 43.152 19.561 42.543 19.209Z" fill="url(#paint0_linear_462_137)"/>
<path d="M40.414 0H0V39.384L9.555 50H50V9.586L40.414 0ZM46.586 9H10.414L3.414 2H39.586L46.586 9ZM2 3.414L9 10.414V46.394L2 38.616V3.414ZM11 48V11H48V40H44V42H48V44H42V46H48V48H11Z" fill="black"/>
<defs>
<linearGradient id="paint0_linear_462_137" x1="23.9999" y1="5" x2="23.9999" y2="43.0007" gradientUnits="userSpaceOnUse">
<stop/>
<stop offset="1" stop-color="#666666" stop-opacity="0.44"/>
</linearGradient>
</defs>
</svg>
