<svg width="20" height="21" viewBox="0 0 20 21" fill="none" xmlns="http://www.w3.org/2000/svg">
<path d="M9.9979 2.5C13.1469 2.5 15.7418 4.83488 15.9824 7.8554L15.9958 8.07762L16.0003 8.30214L15.9993 11.898L16.9247 14.1202C16.9472 14.1743 16.9649 14.2302 16.9776 14.2871L16.9929 14.3733L17.0015 14.5046C17.0015 14.9526 16.705 15.3387 16.2524 15.4677L16.136 15.4945L16.0015 15.5046L12.4999 15.504L12.4949 15.6653C12.4098 16.969 11.3254 18 10.0003 18C8.67478 18 7.59022 16.9685 7.50558 15.6644L7.49986 15.504L3.99915 15.5046C3.9112 15.5046 3.82383 15.493 3.73927 15.4702L3.61481 15.4277C3.20403 15.2567 2.96206 14.8392 3.01246 14.3757L3.03354 14.2483L3.07596 14.1202L3.99926 11.901L4.00035 8.29281L4.00465 8.06824C4.12726 4.95115 6.77129 2.5 9.9979 2.5ZM11.4999 15.504H8.49986L8.50722 15.6454C8.57576 16.3581 9.143 16.925 9.8558 16.9931L10.0003 17C10.78 17 11.4207 16.4051 11.4934 15.6445L11.4999 15.504ZM9.9979 3.5C7.37535 3.5 5.22741 5.42372 5.0174 7.88498L5.00417 8.09723L5.00026 8.30214V12L4.96185 12.1922L3.99914 14.5046L15.9569 14.5066L16.0021 14.5045L15.0387 12.1922L15.0003 12L15.0004 8.31241L14.9963 8.10831C14.8911 5.5349 12.6949 3.5 9.9979 3.5Z" fill="#242424"/>
</svg>
