<svg width="20" height="21" viewBox="0 0 20 21" fill="none" xmlns="http://www.w3.org/2000/svg">
<path d="M4.5 7.25C4.5 6.00736 5.50736 5 6.75 5C7.99264 5 9 6.00736 9 7.25C9 8.49264 7.99264 9.5 6.75 9.5C5.50736 9.5 4.5 8.49264 4.5 7.25ZM6.75 4C4.95507 4 3.5 5.45507 3.5 7.25C3.5 9.04493 4.95507 10.5 6.75 10.5C8.54493 10.5 10 9.04493 10 7.25C10 5.45507 8.54493 4 6.75 4ZM12.4368 15.6453C12.9748 15.8644 13.6518 16 14.4995 16C16.381 16 17.4213 15.3322 17.9689 14.5656C18.2335 14.1953 18.3653 13.8257 18.4313 13.5486C18.4644 13.4096 18.4814 13.2919 18.4901 13.206C18.4945 13.163 18.4969 13.1277 18.4981 13.1013C18.4987 13.0881 18.4991 13.0771 18.4993 13.0685L18.4995 13.0574L18.4995 13.0533L18.4995 13.0515L18.4995 13.05V13C18.4995 12.1716 17.828 11.5 16.9995 11.5H12.3711C12.6102 11.7895 12.7912 12.1288 12.8962 12.5H16.9995C17.2757 12.5 17.4995 12.7239 17.4995 13V13.0462L17.4993 13.0537C17.4988 13.0633 17.4977 13.0806 17.4953 13.1045C17.4904 13.1526 17.48 13.2263 17.4585 13.317C17.4151 13.4993 17.3281 13.7422 17.1552 13.9844C16.8277 14.4428 16.1181 15 14.4995 15C13.7679 15 13.222 14.8862 12.8132 14.719C12.7312 14.9984 12.6116 15.3153 12.4368 15.6453ZM1.5 13.5C1.5 12.3954 2.39543 11.5 3.5 11.5H10C11.1046 11.5 12 12.3954 12 13.5V13.5625L12 13.564L12 13.5658L12 13.5705L11.9997 13.5835C11.9995 13.5938 11.9991 13.6074 11.9983 13.6241C11.9968 13.6574 11.9939 13.7031 11.9883 13.7593C11.9772 13.8716 11.9555 14.0272 11.913 14.2118C11.8282 14.58 11.6586 15.0719 11.3176 15.5655C10.6166 16.5801 9.26315 17.5 6.75 17.5C4.23685 17.5 2.8834 16.5801 2.18238 15.5655C1.8414 15.0719 1.67175 14.58 1.58697 14.2118C1.54446 14.0272 1.52278 13.8716 1.5117 13.7593C1.50614 13.7031 1.50322 13.6574 1.50169 13.6241C1.50092 13.6074 1.5005 13.5938 1.50027 13.5835L1.50005 13.5705L1.50001 13.5658L1.5 13.564L1.5 13.5625V13.5ZM2.5 13.5602L2.50002 13.5612L2.50063 13.5781C2.50141 13.5951 2.50313 13.6233 2.50686 13.6611C2.51433 13.7368 2.52976 13.8497 2.56146 13.9874C2.62512 14.2638 2.75235 14.6312 3.00512 14.997C3.4916 15.7012 4.51315 16.5 6.75 16.5C8.98685 16.5 10.0084 15.7012 10.4949 14.997C10.7477 14.6312 10.8749 14.2638 10.9385 13.9874C10.9702 13.8497 10.9857 13.7368 10.9931 13.6611C10.9969 13.6233 10.9986 13.5951 10.9994 13.5781L11 13.5612L11 13.5602V13.5C11 12.9477 10.5523 12.5 10 12.5H3.5C2.94772 12.5 2.5 12.9477 2.5 13.5V13.5602ZM13 8C13 7.17157 13.6716 6.5 14.5 6.5C15.3284 6.5 16 7.17157 16 8C16 8.82843 15.3284 9.5 14.5 9.5C13.6716 9.5 13 8.82843 13 8ZM14.5 5.5C13.1193 5.5 12 6.61929 12 8C12 9.38071 13.1193 10.5 14.5 10.5C15.8807 10.5 17 9.38071 17 8C17 6.61929 15.8807 5.5 14.5 5.5Z" fill="#242424"/>
</svg>
