<svg width="20" height="21" viewBox="0 0 20 21" fill="none" xmlns="http://www.w3.org/2000/svg">
<path d="M10 3.5C7.79386 3.5 6 5.29386 6 7.5C6 7.77614 6.22386 8 6.5 8C6.77614 8 7 7.77614 7 7.5C7 5.84614 8.34614 4.5 10 4.5C11.6539 4.5 13 5.84614 13 7.5C13 8.7486 12.3078 9.36333 11.4246 10.1204L11.3935 10.147C10.5328 10.8845 9.5 11.7695 9.5 13.5V14C9.5 14.2761 9.72386 14.5 10 14.5C10.2761 14.5 10.5 14.2761 10.5 14V13.5C10.5 12.2514 11.1922 11.6367 12.0754 10.8796L12.1065 10.853C12.9672 10.1155 14 9.23053 14 7.5C14 5.29386 12.2061 3.5 10 3.5ZM10 17.5C10.4142 17.5 10.75 17.1642 10.75 16.75C10.75 16.3358 10.4142 16 10 16C9.58579 16 9.25 16.3358 9.25 16.75C9.25 17.1642 9.58579 17.5 10 17.5Z" fill="#242424"/>
</svg>
