<svg width="20" height="21" viewBox="0 0 20 21" fill="none" xmlns="http://www.w3.org/2000/svg">
<path d="M6 6.5C6 4.29086 7.79086 2.5 10 2.5C11.2632 2.5 12.3896 3.08554 13.1227 4H10V3.5C8.34315 3.5 7 4.84315 7 6.5C7 8.15685 8.34315 9.5 10 9.5V9H13.1227C12.3896 9.91446 11.2632 10.5 10 10.5C7.79086 10.5 6 8.70914 6 6.5ZM13.7092 8H10V7H13.9691C13.9255 7.34932 13.8369 7.68466 13.7092 8ZM13.9691 6C13.9255 5.65068 13.8369 5.31535 13.7092 5H10V6H13.9691ZM3 13.5C3 12.3869 3.90315 11.5 5.00873 11.5L15 11.5C15.7383 11.5 16.3832 11.9002 16.7297 12.4954H10V12.5L5.00873 12.5C4.44786 12.5 4 12.9467 4 13.5C4 14.8088 4.62226 15.7837 5.67262 16.4534C6.74318 17.136 8.26489 17.5 10 17.5L14.5208 17.5C13.2816 18.1782 11.6935 18.5 10 18.5C8.14526 18.5 6.41697 18.114 5.13499 17.2966C3.83281 16.4663 3 15.1912 3 13.5ZM10 14.4954V13.4954H17L17 13.5C17 13.8497 16.9644 14.1815 16.8964 14.4954L10 14.4954ZM16.5437 15.4954C16.3577 15.864 16.1191 16.1991 15.8359 16.5H14.2528C14.2553 16.4985 14.2578 16.4969 14.2604 16.4954H10V15.4954H16.5437Z" fill="#242424"/>
</svg>
