<svg width="20" height="21" viewBox="0 0 20 21" fill="none" xmlns="http://www.w3.org/2000/svg">
<path d="M13.5 13.5C13.2239 13.5 13 13.7239 13 14C13 14.2761 13.2239 14.5 13.5 14.5H15.5C15.7761 14.5 16 14.2761 16 14C16 13.7239 15.7761 13.5 15.5 13.5H13.5ZM2 7.25C2 5.73122 3.23122 4.5 4.75 4.5H15.25C16.7688 4.5 18 5.73122 18 7.25V13.75C18 15.2688 16.7688 16.5 15.25 16.5H4.75C3.23122 16.5 2 15.2688 2 13.75V7.25ZM4.75 5.5C3.7835 5.5 3 6.2835 3 7.25V8.5H17V7.25C17 6.2835 16.2165 5.5 15.25 5.5H4.75ZM17 9.5H3V13.75C3 14.7165 3.7835 15.5 4.75 15.5H15.25C16.2165 15.5 17 14.7165 17 13.75V9.5Z" fill="#242424"/>
</svg>
