<svg width="15" height="15" viewBox="0 0 15 15" fill="none" xmlns="http://www.w3.org/2000/svg">
<rect width="15" height="15" fill="white"/>
<path d="M7.76569 3.77457C7.89727 3.65064 8.10271 3.65094 8.23393 3.77527L9.23722 4.7259C9.3739 4.8554 9.58968 4.84959 9.71918 4.71292C9.84868 4.57625 9.84287 4.36047 9.7062 4.23097L8.7029 3.28034C8.30926 2.90736 7.69293 2.90645 7.29819 3.27825L6.28741 4.23027C6.15035 4.35937 6.1439 4.57512 6.273 4.71218C6.40209 4.84923 6.61785 4.85569 6.75491 4.7266L7.76569 3.77457ZM4.72664 6.75481C4.85574 6.61775 4.84929 6.402 4.71223 6.2729C4.57517 6.14381 4.35941 6.15026 4.23031 6.28732L3.27826 7.29807C2.90644 7.6928 2.90736 8.30911 3.28035 8.70274L4.23101 9.70601C4.36051 9.84268 4.57629 9.84849 4.71296 9.71899C4.84964 9.58949 4.85545 9.37372 4.72595 9.23705L3.77529 8.23378C3.65096 8.10257 3.65065 7.89713 3.77459 7.76555L4.72664 6.75481ZM11.7653 6.29092C11.6358 6.1543 11.42 6.14857 11.2834 6.27813C11.1467 6.40768 11.141 6.62346 11.2706 6.76008L12.2246 7.76612C12.3493 7.89764 12.3493 8.10376 12.2246 8.23528L11.2706 9.24139C11.141 9.37801 11.1467 9.59378 11.2834 9.72334C11.42 9.85289 11.6358 9.84716 11.7653 9.71053L12.7194 8.70442C13.0935 8.30986 13.0935 7.69152 12.7194 7.29696L11.7653 6.29092ZM9.70983 11.766C9.84646 11.6364 9.8522 11.4206 9.72264 11.284C9.59309 11.1474 9.37731 11.1417 9.24068 11.2712L8.23514 12.2246C8.10367 12.3493 7.89767 12.3494 7.76613 12.2248L6.75914 11.2711C6.62244 11.1416 6.40666 11.1475 6.27719 11.2842C6.14771 11.4209 6.15357 11.6366 6.29028 11.7661L7.29726 12.7198C7.69188 13.0936 8.30989 13.0934 8.70429 12.7194L9.70983 11.766ZM6.97516 5.72593C6.28478 5.72593 5.72512 6.28558 5.72512 6.97594V9.0214C5.72512 9.71176 6.28478 10.2714 6.97516 10.2714H9.02068C9.71106 10.2714 10.2707 9.71176 10.2707 9.0214V6.97594C10.2707 6.28558 9.71106 5.72593 9.02068 5.72593H6.97516ZM6.40696 6.97594C6.40696 6.66214 6.66135 6.40775 6.97516 6.40775H9.02068C9.33449 6.40775 9.58888 6.66214 9.58888 6.97594V9.0214C9.58888 9.3352 9.33449 9.58958 9.02068 9.58958H6.97516C6.66135 9.58958 6.40696 9.3352 6.40696 9.0214V6.97594Z" fill="#242424"/>
</svg>
