<?xml version="1.0" encoding="utf-8"?>
<!-- Generator: Adobe Illustrator 28.1.0, SVG Export Plug-In . SVG Version: 6.00 Build 0)  -->
<svg version="1.0" id="Layer_1" xmlns="http://www.w3.org/2000/svg" xmlns:xlink="http://www.w3.org/1999/xlink" x="0px" y="0px"
	 viewBox="0 0 64 64" style="enable-background:new 0 0 64 64;" xml:space="preserve">
<style type="text/css">
	.st0{fill:none;stroke:#282525;stroke-width:2;stroke-linecap:round;stroke-linejoin:round;stroke-miterlimit:10;}
</style>
<g>
	<path class="st0" d="M40.3,48.4H8.9c-3.5,0-6.3-2.8-6.3-6.3V21.9c0-3.5,2.8-6.3,6.3-6.3h31.4c3.5,0,6.3,2.8,6.3,6.3v20.1
		C46.6,45.5,43.8,48.4,40.3,48.4z"/>
	<path class="st0" d="M46.6,39.3l10.6,3.9c2,0.7,4.1-0.8,4.1-2.9V23.7c0-2.1-2.1-3.6-4.1-2.9l-10.6,3.9"/>
	<path class="st0" d="M32.3,28.6l-7.4-4.3c-2.6-1.5-5.9,0.4-5.9,3.4v8.6c0,3,3.3,5,5.9,3.4l7.4-4.3C34.9,33.9,34.9,30.1,32.3,28.6z"
		/>
</g>
</svg>
