<svg width="16" height="17" viewBox="0 0 16 17" fill="none" xmlns="http://www.w3.org/2000/svg">
<path d="M0.209704 0.703507L0.292893 0.6093C0.653377 0.248816 1.22061 0.221086 1.6129 0.526111L1.70711 0.6093L8 6.90141L14.2929 0.6093C14.6834 0.218775 15.3166 0.218775 15.7071 0.6093C16.0976 0.999824 16.0976 1.63299 15.7071 2.02351L9.415 8.31641L15.7071 14.6093C16.0676 14.9698 16.0953 15.537 15.7903 15.9293L15.7071 16.0235C15.3466 16.384 14.7794 16.4117 14.3871 16.1067L14.2929 16.0235L8 9.73141L1.70711 16.0235C1.31658 16.414 0.683418 16.414 0.292893 16.0235C-0.0976309 15.633 -0.0976309 14.9998 0.292893 14.6093L6.585 8.31641L0.292893 2.02351C-0.0675905 1.66303 -0.0953204 1.0958 0.209704 0.703507L0.292893 0.6093L0.209704 0.703507Z" fill="#666666"/>
</svg>
