<svg width="119" height="21" viewBox="0 0 119 21" fill="none" xmlns="http://www.w3.org/2000/svg">
<path d="M0.88 15.82C0.6 15.82 0.386667 15.7333 0.24 15.56C0.0933334 15.3867 0.0133334 15.1867 0 14.96C0 14.72 0.08 14.5 0.24 14.3L5.34 7.42L6.18 6.72L10.8 0.5C10.9733 0.3 11.2067 0.2 11.5 0.2C11.7533 0.2 11.9533 0.28 12.1 0.439999C12.2467 0.599999 12.3267 0.8 12.34 1.04C12.3533 1.26667 12.2867 1.48 12.14 1.68L7.26 8.24L6.48 8.92L1.54 15.54C1.35333 15.7267 1.13333 15.82 0.88 15.82ZM11.48 15.82C11.3333 15.82 11.2 15.7933 11.08 15.74C10.96 15.6867 10.8533 15.6 10.76 15.48L5.98 8.84L5.28 8.3L0.52 1.68C0.373333 1.48 0.306667 1.26667 0.32 1.04C0.346667 0.813333 0.433333 0.62 0.58 0.46C0.74 0.286667 0.946667 0.2 1.2 0.2C1.50667 0.2 1.73333 0.3 1.88 0.5L6.42 6.78L7.1 7.32L12.14 14.3C12.2867 14.5 12.3533 14.72 12.34 14.96C12.34 15.2 12.26 15.4067 12.1 15.58C11.9533 15.74 11.7467 15.82 11.48 15.82Z" fill="#2E368E"/>
<path d="M18.3716 15.9C17.2649 15.9 16.2849 15.6667 15.4316 15.2C14.5916 14.72 13.9316 14.0667 13.4516 13.24C12.9716 12.4 12.7316 11.44 12.7316 10.36C12.7316 9.26667 12.9582 8.30667 13.4116 7.48C13.8649 6.64 14.4916 5.98667 15.2916 5.52C16.0916 5.04 17.0182 4.8 18.0716 4.8C19.0982 4.8 19.9849 5.03333 20.7316 5.5C21.4782 5.95333 22.0516 6.58667 22.4516 7.4C22.8516 8.2 23.0516 9.12667 23.0516 10.18C23.0516 10.4067 22.9716 10.6 22.8116 10.76C22.6649 10.9067 22.4649 10.98 22.2116 10.98H13.9916V9.5H22.2316L21.4116 10.08C21.3982 9.37333 21.2582 8.74 20.9916 8.18C20.7249 7.62 20.3449 7.18 19.8516 6.86C19.3582 6.54 18.7649 6.38 18.0716 6.38C17.3116 6.38 16.6516 6.55333 16.0916 6.9C15.5449 7.24667 15.1249 7.72 14.8316 8.32C14.5382 8.92 14.3916 9.6 14.3916 10.36C14.3916 11.12 14.5582 11.8 14.8916 12.4C15.2382 12.9867 15.7049 13.4533 16.2916 13.8C16.8916 14.1467 17.5849 14.32 18.3716 14.32C18.7982 14.32 19.2382 14.24 19.6916 14.08C20.1582 13.92 20.5249 13.7333 20.7916 13.52C20.9782 13.3733 21.1782 13.3 21.3916 13.3C21.6049 13.2867 21.7916 13.3467 21.9516 13.48C22.1516 13.6667 22.2582 13.8733 22.2716 14.1C22.2849 14.3133 22.1916 14.5 21.9916 14.66C21.5382 15.02 20.9716 15.32 20.2916 15.56C19.6249 15.7867 18.9849 15.9 18.3716 15.9Z" fill="#2E368E"/>
<path d="M34.5548 15.84C34.2882 15.84 34.0615 15.7533 33.8748 15.58C33.7015 15.3933 33.6148 15.1733 33.6148 14.92V9.88C33.6148 9.09333 33.4682 8.45333 33.1748 7.96C32.8815 7.45333 32.4882 7.08 31.9948 6.84C31.5015 6.58667 30.9348 6.46 30.2948 6.46C29.6948 6.46 29.1548 6.58 28.6748 6.82C28.1948 7.06 27.8082 7.38 27.5148 7.78C27.2348 8.18 27.0948 8.64 27.0948 9.16H25.8948C25.9082 8.32 26.1215 7.57333 26.5348 6.92C26.9482 6.25333 27.5082 5.73333 28.2148 5.36C28.9215 4.97333 29.7148 4.78 30.5948 4.78C31.5282 4.78 32.3615 4.98 33.0948 5.38C33.8282 5.76667 34.4082 6.34 34.8348 7.1C35.2615 7.86 35.4748 8.78667 35.4748 9.88V14.92C35.4748 15.1733 35.3815 15.3933 35.1948 15.58C35.0215 15.7533 34.8082 15.84 34.5548 15.84ZM26.1748 15.84C25.9082 15.84 25.6882 15.7533 25.5148 15.58C25.3415 15.4067 25.2548 15.1867 25.2548 14.92V5.8C25.2548 5.52 25.3415 5.3 25.5148 5.14C25.6882 4.96667 25.9082 4.88 26.1748 4.88C26.4548 4.88 26.6748 4.96667 26.8348 5.14C27.0082 5.3 27.0948 5.52 27.0948 5.8V14.92C27.0948 15.1867 27.0082 15.4067 26.8348 15.58C26.6748 15.7533 26.4548 15.84 26.1748 15.84Z" fill="#2E368E"/>
<path d="M45.6486 16.02C44.5686 16.02 43.5553 15.82 42.6086 15.42C41.6753 15.0067 40.8553 14.4333 40.1486 13.7C39.4553 12.9667 38.9086 12.1133 38.5086 11.14C38.1086 10.1667 37.9086 9.12 37.9086 8C37.9086 6.89333 38.1019 5.86 38.4886 4.9C38.8886 3.92667 39.4419 3.07333 40.1486 2.34C40.8553 1.60667 41.6753 1.03333 42.6086 0.619999C43.5419 0.206666 44.5553 0 45.6486 0C46.6486 0 47.5286 0.14 48.2886 0.419999C49.0486 0.686666 49.8019 1.12667 50.5486 1.74C50.6553 1.82 50.7286 1.91333 50.7686 2.02C50.8219 2.11333 50.8419 2.21333 50.8286 2.32C50.8286 2.41333 50.8086 2.50667 50.7686 2.6C50.7553 2.8 50.6686 2.96 50.5086 3.08C50.3619 3.2 50.1819 3.26667 49.9686 3.28C49.7686 3.28 49.5686 3.20667 49.3686 3.06C48.8619 2.62 48.3286 2.28667 47.7686 2.06C47.2086 1.83333 46.5019 1.72 45.6486 1.72C44.8353 1.72 44.0686 1.88667 43.3486 2.22C42.6419 2.55333 42.0153 3.00667 41.4686 3.58C40.9219 4.15333 40.4953 4.82 40.1886 5.58C39.8819 6.34 39.7286 7.14667 39.7286 8C39.7286 8.88 39.8819 9.7 40.1886 10.46C40.4953 11.2067 40.9219 11.8733 41.4686 12.46C42.0153 13.0333 42.6419 13.48 43.3486 13.8C44.0686 14.12 44.8353 14.28 45.6486 14.28C46.3553 14.28 47.0219 14.1667 47.6486 13.94C48.2753 13.7 48.8686 13.3667 49.4286 12.94C49.6419 12.78 49.8553 12.7133 50.0686 12.74C50.2819 12.7533 50.4619 12.84 50.6086 13C50.7553 13.1467 50.8286 13.3533 50.8286 13.62C50.8286 13.74 50.8086 13.86 50.7686 13.98C50.7286 14.0867 50.6553 14.1867 50.5486 14.28C49.8553 14.88 49.0886 15.32 48.2486 15.6C47.4219 15.88 46.5553 16.02 45.6486 16.02Z" fill="#2E368E"/>
<path d="M57.3961 15.9C56.3961 15.9 55.5028 15.66 54.7161 15.18C53.9294 14.7 53.3094 14.04 52.8561 13.2C52.4028 12.36 52.1761 11.4133 52.1761 10.36C52.1761 9.29333 52.4161 8.34667 52.8961 7.52C53.3894 6.68 54.0494 6.02 54.8761 5.54C55.7161 5.04667 56.6561 4.8 57.6961 4.8C58.7494 4.8 59.6894 5.04667 60.5161 5.54C61.3428 6.02 61.9961 6.68 62.4761 7.52C62.9694 8.36 63.2228 9.30667 63.2361 10.36L62.5161 10.54C62.5161 11.5533 62.2894 12.4667 61.8361 13.28C61.3828 14.0933 60.7694 14.7333 59.9961 15.2C59.2361 15.6667 58.3694 15.9 57.3961 15.9ZM57.6961 14.26C58.4161 14.26 59.0561 14.0933 59.6161 13.76C60.1761 13.4133 60.6161 12.9467 60.9361 12.36C61.2694 11.76 61.4361 11.0933 61.4361 10.36C61.4361 9.61333 61.2694 8.94667 60.9361 8.36C60.6161 7.76 60.1761 7.29333 59.6161 6.96C59.0561 6.61333 58.4161 6.44 57.6961 6.44C57.0028 6.44 56.3694 6.61333 55.7961 6.96C55.2228 7.29333 54.7694 7.76 54.4361 8.36C54.1161 8.94667 53.9561 9.61333 53.9561 10.36C53.9561 11.0933 54.1161 11.76 54.4361 12.36C54.7694 12.9467 55.2228 13.4133 55.7961 13.76C56.3694 14.0933 57.0028 14.26 57.6961 14.26ZM62.2961 15.84C62.0294 15.84 61.8094 15.7533 61.6361 15.58C61.4628 15.4067 61.3761 15.1867 61.3761 14.92V11.72L61.7561 9.8L63.2361 10.36V14.92C63.2361 15.1867 63.1428 15.4067 62.9561 15.58C62.7828 15.7533 62.5628 15.84 62.2961 15.84Z" fill="#2E368E"/>
<path d="M66.7717 20.5C66.5051 20.5 66.285 20.4133 66.1117 20.24C65.9384 20.0667 65.8517 19.8467 65.8517 19.58V10.32C65.8651 9.28 66.1117 8.34 66.5917 7.5C67.0851 6.66 67.745 6 68.5717 5.52C69.3984 5.04 70.3317 4.8 71.3717 4.8C72.425 4.8 73.3651 5.04667 74.1917 5.54C75.0317 6.02 75.6917 6.68 76.1717 7.52C76.6651 8.34667 76.9117 9.29333 76.9117 10.36C76.9117 11.4133 76.6784 12.36 76.2117 13.2C75.7584 14.04 75.1384 14.7 74.3517 15.18C73.5651 15.66 72.6784 15.9 71.6917 15.9C70.8517 15.9 70.0917 15.7267 69.4117 15.38C68.7317 15.0333 68.1584 14.5667 67.6917 13.98V19.58C67.6917 19.8467 67.605 20.0667 67.4317 20.24C67.2717 20.4133 67.0517 20.5 66.7717 20.5ZM71.3717 14.26C72.0784 14.26 72.7117 14.0933 73.2717 13.76C73.8451 13.4133 74.2917 12.9467 74.6117 12.36C74.9451 11.76 75.1117 11.0933 75.1117 10.36C75.1117 9.61333 74.9451 8.94667 74.6117 8.36C74.2917 7.76 73.8451 7.29333 73.2717 6.96C72.7117 6.61333 72.0784 6.44 71.3717 6.44C70.6651 6.44 70.0251 6.61333 69.4517 6.96C68.8917 7.30667 68.4517 7.77333 68.1317 8.36C67.8117 8.94667 67.6517 9.61333 67.6517 10.36C67.6517 11.0933 67.8117 11.76 68.1317 12.36C68.4517 12.9467 68.8917 13.4133 69.4517 13.76C70.0251 14.0933 70.6651 14.26 71.3717 14.26Z" fill="#2E368E"/>
<path d="M83.6533 15.82C82.9733 15.82 82.3599 15.6533 81.8133 15.32C81.2666 14.9733 80.8399 14.5133 80.5333 13.94C80.2266 13.3533 80.0733 12.6867 80.0733 11.94V2.32C80.0733 2.05333 80.1533 1.83333 80.3133 1.66C80.4866 1.48667 80.7066 1.4 80.9733 1.4C81.24 1.4 81.4599 1.48667 81.6333 1.66C81.8066 1.83333 81.8933 2.05333 81.8933 2.32V11.94C81.8933 12.54 82.0599 13.0333 82.3933 13.42C82.7266 13.8067 83.1466 14 83.6533 14H84.2733C84.4999 14 84.6866 14.0867 84.8333 14.26C84.9933 14.4333 85.0733 14.6533 85.0733 14.92C85.0733 15.1867 84.9733 15.4067 84.7733 15.58C84.5866 15.74 84.3399 15.82 84.0333 15.82H83.6533ZM78.9933 6.86C78.7533 6.86 78.5533 6.78667 78.3933 6.64C78.2333 6.49333 78.1533 6.30667 78.1533 6.08C78.1533 5.84 78.2333 5.64667 78.3933 5.5C78.5533 5.35333 78.7533 5.28 78.9933 5.28H83.8133C84.0533 5.28 84.2533 5.35333 84.4133 5.5C84.5733 5.64667 84.6533 5.84 84.6533 6.08C84.6533 6.30667 84.5733 6.49333 84.4133 6.64C84.2533 6.78667 84.0533 6.86 83.8133 6.86H78.9933Z" fill="#2E368E"/>
<path d="M91.8406 15.92C90.9073 15.92 90.074 15.7267 89.3406 15.34C88.6073 14.94 88.0273 14.36 87.6006 13.6C87.174 12.84 86.9606 11.9133 86.9606 10.82V5.78C86.9606 5.52667 87.0473 5.31333 87.2206 5.14C87.4073 4.95333 87.6273 4.86 87.8806 4.86C88.1473 4.86 88.3673 4.95333 88.5406 5.14C88.7273 5.31333 88.8206 5.52667 88.8206 5.78V10.82C88.8206 11.5933 88.9673 12.2333 89.2606 12.74C89.554 13.2467 89.9473 13.6267 90.4406 13.88C90.9473 14.12 91.514 14.24 92.1406 14.24C92.754 14.24 93.294 14.12 93.7606 13.88C94.2406 13.64 94.6206 13.32 94.9006 12.92C95.194 12.5067 95.3406 12.0467 95.3406 11.54H96.5406C96.514 12.3667 96.294 13.1133 95.8806 13.78C95.4806 14.4467 94.9273 14.9733 94.2206 15.36C93.514 15.7333 92.7206 15.92 91.8406 15.92ZM96.2606 15.82C95.994 15.82 95.774 15.7333 95.6006 15.56C95.4273 15.3867 95.3406 15.1667 95.3406 14.9V5.78C95.3406 5.51333 95.4273 5.29333 95.6006 5.12C95.774 4.94667 95.994 4.86 96.2606 4.86C96.5273 4.86 96.7473 4.94667 96.9206 5.12C97.094 5.29333 97.1806 5.51333 97.1806 5.78V14.9C97.1806 15.1667 97.094 15.3867 96.9206 15.56C96.7473 15.7333 96.5273 15.82 96.2606 15.82Z" fill="#2E368E"/>
<path d="M101.214 9.02C101.241 8.20667 101.448 7.48 101.834 6.84C102.234 6.2 102.761 5.69333 103.414 5.32C104.068 4.94667 104.788 4.76 105.574 4.76C106.308 4.76 106.854 4.87333 107.214 5.1C107.588 5.32667 107.728 5.61333 107.634 5.96C107.594 6.16 107.514 6.30667 107.394 6.4C107.274 6.48 107.134 6.52667 106.974 6.54C106.814 6.54 106.641 6.52667 106.454 6.5C105.641 6.36667 104.914 6.38667 104.274 6.56C103.634 6.73333 103.128 7.03333 102.754 7.46C102.381 7.88667 102.194 8.40667 102.194 9.02H101.214ZM101.274 15.82C100.994 15.82 100.774 15.7467 100.614 15.6C100.454 15.44 100.374 15.2133 100.374 14.92V5.78C100.374 5.5 100.454 5.28 100.614 5.12C100.774 4.96 100.994 4.88 101.274 4.88C101.581 4.88 101.808 4.96 101.954 5.12C102.114 5.26667 102.194 5.48667 102.194 5.78V14.92C102.194 15.2 102.114 15.42 101.954 15.58C101.808 15.74 101.581 15.82 101.274 15.82Z" fill="#2E368E"/>
<path d="M113.746 15.9C112.639 15.9 111.659 15.6667 110.806 15.2C109.966 14.72 109.306 14.0667 108.826 13.24C108.346 12.4 108.106 11.44 108.106 10.36C108.106 9.26667 108.332 8.30667 108.786 7.48C109.239 6.64 109.866 5.98667 110.666 5.52C111.466 5.04 112.392 4.8 113.446 4.8C114.472 4.8 115.359 5.03333 116.106 5.5C116.852 5.95333 117.426 6.58667 117.826 7.4C118.226 8.2 118.426 9.12667 118.426 10.18C118.426 10.4067 118.346 10.6 118.186 10.76C118.039 10.9067 117.839 10.98 117.586 10.98H109.366V9.5H117.606L116.786 10.08C116.772 9.37333 116.632 8.74 116.366 8.18C116.099 7.62 115.719 7.18 115.226 6.86C114.732 6.54 114.139 6.38 113.446 6.38C112.686 6.38 112.026 6.55333 111.466 6.9C110.919 7.24667 110.499 7.72 110.206 8.32C109.912 8.92 109.766 9.6 109.766 10.36C109.766 11.12 109.932 11.8 110.266 12.4C110.612 12.9867 111.079 13.4533 111.666 13.8C112.266 14.1467 112.959 14.32 113.746 14.32C114.172 14.32 114.612 14.24 115.066 14.08C115.532 13.92 115.899 13.7333 116.166 13.52C116.352 13.3733 116.552 13.3 116.766 13.3C116.979 13.2867 117.166 13.3467 117.326 13.48C117.526 13.6667 117.632 13.8733 117.646 14.1C117.659 14.3133 117.566 14.5 117.366 14.66C116.912 15.02 116.346 15.32 115.666 15.56C114.999 15.7867 114.359 15.9 113.746 15.9Z" fill="#2E368E"/>
</svg>
