<svg width="28" height="26" viewBox="0 0 28 26" fill="none" xmlns="http://www.w3.org/2000/svg">
<path d="M17.0633 1.80857C15.7319 -0.601898 12.2671 -0.601878 10.9358 1.80862L0.442688 20.8077C-0.845654 23.1404 0.841643 25.9998 3.50647 25.9998H24.4931C27.1579 25.9998 28.8452 23.1403 27.5568 20.8076L17.0633 1.80857ZM15.25 20C15.25 20.6904 14.6904 21.25 14 21.25C13.3096 21.25 12.75 20.6904 12.75 20C12.75 19.3096 13.3096 18.75 14 18.75C14.6904 18.75 15.25 19.3096 15.25 20ZM14 7C14.5523 7 15 7.44772 15 8V16C15 16.5523 14.5523 17 14 17C13.4477 17 13 16.5523 13 16V8C13 7.44772 13.4477 7 14 7Z" fill="#F58220"/>
</svg>
