<svg width="29" height="28" viewBox="0 0 29 28" fill="none" xmlns="http://www.w3.org/2000/svg">
<path d="M13.9891 4.70698C14.2785 4.43432 14.7305 4.435 15.0192 4.70851L17.2263 6.79989C17.527 7.08479 18.0017 7.07201 18.2866 6.77133C18.5715 6.47066 18.5587 5.99596 18.258 5.71106L16.0509 3.61967C15.1849 2.79913 13.829 2.79711 12.9606 3.61507L10.737 5.70952C10.4354 5.99353 10.4212 6.46819 10.7052 6.76971C10.9892 7.07123 11.4639 7.08543 11.7654 6.80143L13.9891 4.70698ZM7.30338 11.2635C7.58738 10.962 7.57318 10.4873 7.27166 10.2033C6.97014 9.91929 6.49548 9.93349 6.21148 10.235L4.11703 12.4586C3.29906 13.3271 3.30108 14.6829 4.12163 15.5489L6.21301 17.7561C6.49791 18.0568 6.97261 18.0696 7.27329 17.7847C7.57396 17.4998 7.58675 17.0251 7.30185 16.7244L5.21046 14.5172C4.93695 14.2285 4.93628 13.7766 5.20893 13.4871L7.30338 11.2635ZM22.788 10.2429C22.503 9.94236 22.0282 9.92976 21.7277 10.2148C21.4271 10.4998 21.4145 10.9745 21.6995 11.2751L23.7984 13.4884C24.0728 13.7777 24.0728 14.2312 23.7984 14.5205L21.6995 16.7339C21.4145 17.0345 21.4271 17.5092 21.7277 17.7942C22.0283 18.0792 22.503 18.0666 22.788 17.7661L24.8869 15.5526C25.71 14.6846 25.71 13.3242 24.8868 12.4562L22.788 10.2429ZM18.266 22.288C18.5666 22.003 18.5792 21.5283 18.2942 21.2277C18.0092 20.9271 17.5345 20.9145 17.2339 21.1995L15.0218 23.2971C14.7326 23.5713 14.2794 23.5715 13.99 23.2974L11.7747 21.1992C11.474 20.9144 10.9993 20.9273 10.7145 21.228C10.4296 21.5288 10.4425 22.0035 10.7433 22.2883L12.9586 24.3864C13.8267 25.2087 15.1863 25.2083 16.0539 24.3856L18.266 22.288ZM12.25 8.99996C10.7312 8.99996 9.49996 10.2312 9.49996 11.75V16.25C9.49996 17.7687 10.7312 19 12.25 19H16.75C18.2687 19 19.5 17.7687 19.5 16.25V11.75C19.5 10.2312 18.2687 8.99996 16.75 8.99996H12.25ZM11 11.75C11 11.0596 11.5596 10.5 12.25 10.5H16.75C17.4403 10.5 18 11.0596 18 11.75V16.25C18 16.9403 17.4403 17.5 16.75 17.5H12.25C11.5596 17.5 11 16.9403 11 16.25V11.75Z" fill="#242424"/>
</svg>
